/* XPM */
static char *close_pressed[] = {
/* columns rows colors chars-per-pixel */
"20 24 186 2",
"   c #5E1D1D",
".  c #4D3232",
"X  c #503C3C",
"o  c #523D3D",
"O  c #601B1B",
"+  c #601E1E",
"@  c #671B1B",
"#  c #731E1D",
"$  c #6A3636",
"%  c #6A3939",
"&  c #732D2D",
"*  c #752928",
"=  c #742D2D",
"-  c #772F2F",
";  c #7B2626",
":  c #7D2221",
">  c #723232",
",  c #743131",
"<  c #793131",
"1  c #7B3333",
"2  c #7B3C3C",
"3  c #554242",
"4  c #564D4D",
"5  c #585152",
"6  c #5F5959",
"7  c #605B5B",
"8  c #786B6B",
"9  c #7C7171",
"0  c #802120",
"q  c #8A2423",
"w  c #892B2A",
"e  c #8E2928",
"r  c #843A3A",
"t  c #8C3837",
"y  c #9E2C29",
"u  c #943938",
"i  c #9B3A36",
"p  c #993938",
"a  c #A02F2C",
"s  c #A53531",
"d  c #A63631",
"f  c #A23D39",
"g  c #A23D3A",
"h  c #AF3A36",
"j  c #B4342F",
"k  c #B4352F",
"l  c #B03A36",
"z  c #B73B36",
"x  c #BA3531",
"c  c #BB3D38",
"v  c #AB433F",
"b  c #BC433E",
"n  c #854444",
"m  c #944342",
"M  c #856D6D",
"N  c #8A7A7A",
"B  c #A05452",
"V  c #A25755",
"C  c #B54844",
"Z  c #B54944",
"A  c #BB4C47",
"S  c #BD4D48",
"D  c #B4605C",
"F  c #B4635F",
"G  c #AC6B69",
"H  c #AC6C6A",
"J  c #B46A68",
"K  c #C03F39",
"L  c #C93A34",
"P  c #CB3B35",
"I  c #CA3D35",
"U  c #C6413B",
"Y  c #C9423B",
"T  c #D34139",
"R  c #E2433B",
"E  c #E5443C",
"W  c #C45650",
"Q  c #D14A43",
"!  c #D14B44",
"~  c #D5534C",
"^  c #D7544D",
"/  c #D65953",
"(  c #DB5B53",
")  c #D85B54",
"_  c #DC5C53",
"`  c #C46A64",
"'  c #C46C66",
"]  c #C57D77",
"[  c #DC6763",
"{  c #ED5952",
"}  c #ED5A52",
"|  c #F24840",
" . c #FB4D44",
".. c #FB5046",
"X. c #FB5147",
"o. c #FB534A",
"O. c #FF584F",
"+. c #FF5A50",
"@. c #E16961",
"#. c #E16962",
"$. c #E36964",
"%. c #E5716A",
"&. c #E5726A",
"*. c #F47E75",
"=. c #C58079",
"-. c #F48076",
";. c #FF867B",
":. c #FF877C",
">. c #918D8D",
",. c #958F8F",
"<. c #939393",
"1. c #9B9898",
"2. c #9F9E9F",
"3. c #A09C9C",
"4. c #A0A0A0",
"5. c #A7A6A7",
"6. c #AAAAAA",
"7. c #ABAAAB",
"8. c #B7B6B7",
"9. c #BFBEBF",
"0. c #DD8C89",
"q. c #D3948B",
"w. c #D3958C",
"e. c #EB8C82",
"r. c #EB9086",
"t. c #FE9288",
"y. c #FE9489",
"u. c #FE958A",
"i. c #FE968B",
"p. c #FA9C92",
"a. c #FAA095",
"s. c #FEA398",
"d. c #FEA499",
"f. c #EDB1AE",
"g. c #C3C2C3",
"h. c #C4C3C4",
"j. c #C6C5C6",
"k. c #C6C6C6",
"l. c #CACACA",
"z. c gray80",
"x. c #CDCDCD",
"c. c #CECECE",
"v. c #D0D0D0",
"b. c gray82",
"n. c #D2D2D2",
"m. c LightGray",
"M. c gray83",
"N. c #D5D5D5",
"B. c gray84",
"V. c #D7D7D7",
"C. c #D8D7D8",
"Z. c #D8D8D8",
"A. c #D9D8D9",
"S. c #DADADA",
"D. c #DBDADB",
"F. c #DCDBDC",
"G. c gainsboro",
"H. c #DDDCDD",
"J. c #DDDDDD",
"K. c gray87",
"L. c #DFDEDF",
"P. c #DFDFDF",
"I. c #F1CAC9",
"U. c gray88",
"Y. c #E1E0E1",
"T. c #E1E1E1",
"R. c gray89",
"E. c #E4E3E4",
"W. c #E4E4E4",
"Q. c gray90",
"!. c #E7E6E7",
"~. c #E7E7E7",
"^. c #E8E7E8",
"/. c #E9E8E9",
"(. c #E9E9E9",
"). c #EAE9EA",
"_. c #EAEAEA",
"`. c #ECEBEC",
"'. c #ECECEC",
"]. c #EDECED",
"[. c #EEEDEE",
"{. c #F0EFF0",
"}. c #F2F1F2",
"|. c #F4F3F4",
" X c #F6F5F6",
".X c #F8F7F8",
/* pixels */
"6.6.6.6.6.6.6.6.6.6.6.6.6.6.6.6.7.6.6.6.",
".X.X.X.X.X.X.X.X.X.X.X.X.X.X.X.X.X.X.X.X",
" X X X X X X X X X X X X X X X X X X X X",
"|.|.|.|.|.|.|.|.|.|.|.|.|.|.|.|.|.|.|.|.",
"}.}.}.}.}.}.}.}.}.}.}.}.}.}.}.}.}.}.}.}.",
"{.{.{.{.{.{.{.{.R.g.g.L.{.{.{.{.{.{.{.{.",
"[.[.[.[.[.[.5.3   1 1   o 2.[.[.[.[.[.[.",
"`.`.`.`.!.7 > B G J J G V 2 5 R.`.`.`.`.",
"(.(.(.(.6 t f x 0.I.I.0.x f m 4 ~.(.(.).",
"~.~.~.2.# d L z [ f.f.[ z L d : <.!.~.~.",
"!.!.!.X y L c i b $.$.b i c P a . R.R.!.",
"R.R.m.O j R E K i c K i K E R j @ l.R.R.",
"L.R.8.# I | | | U i i U E E  .P q 6.R.R.",
"L.L.k.e T  . .X.Q v v ! o. . .T e 9.J.L.",
"H.H.H.n Y o.O.~ Z _ _ Z ^ O.o.Y r J.G.G.",
"F.F.C.N h } / A #.;.;.#.S ) } z M C.S.S.",
"C.C.V.x.* W *.%.y.y.y.y.%.-.W ; k.M.C.C.",
"V.V.V.C.3.u ' e.a.d.d.p.e.` i ,.C.V.V.M.",
"m.M.M.M.H.1., J =.q.q.] D - >.U.M.M.M.M.",
"n.n.n.n.n.G.V.8 % = = $ 8 b.J.b.m.m.b.m.",
"v.v.v.v.v.v.v.U.'._.(.'.R.v.v.v.c.b.b.c.",
"c.c.c.c.c.c.c.c.c.c.c.c.x.c.c.c.c.c.c.c.",
"z.z.z.z.z.z.z.z.z.z.z.z.z.z.z.z.x.x.x.x.",
"6.6.6.6.6.6.6.6.6.6.6.6.6.6.6.6.7.7.7.7."
};
