/* XPM */
static char *close_active[] = {
/* columns rows colors chars-per-pixel */
"20 24 182 2",
"   c #5E1D1D",
".  c #4D3232",
"X  c #503C3C",
"o  c #523D3D",
"O  c #601B1B",
"+  c #601E1E",
"@  c #671B1B",
"#  c #731E1D",
"$  c #6A3636",
"%  c #6A3939",
"&  c #732D2D",
"*  c #752928",
"=  c #742D2D",
"-  c #772F2F",
";  c #7B2626",
":  c #7D2221",
">  c #723232",
",  c #743131",
"<  c #793131",
"1  c #7B3333",
"2  c #7B3C3C",
"3  c #554242",
"4  c #564D4D",
"5  c #585152",
"6  c #5F5959",
"7  c #605B5B",
"8  c #786B6B",
"9  c #7C7171",
"0  c #802120",
"q  c #8A2423",
"w  c #892B2A",
"e  c #8E2928",
"r  c #843A3A",
"t  c #8C3837",
"y  c #9E2C29",
"u  c #943938",
"i  c #993938",
"p  c #A02F2C",
"a  c #A53531",
"s  c #A63631",
"d  c #A23D39",
"f  c #A23D3A",
"g  c #AF3A36",
"h  c #B4342F",
"j  c #B4352F",
"k  c #B03A36",
"l  c #BA3531",
"z  c #854444",
"x  c #944342",
"c  c #856D6D",
"v  c #8A7A7A",
"b  c #A05452",
"n  c #A25755",
"m  c #B4605C",
"M  c #B4635F",
"N  c #AC6B69",
"B  c #AC6C6A",
"V  c #B46A68",
"C  c #C93A34",
"Z  c #CB3B35",
"A  c #CA3D35",
"S  c #D23D37",
"D  c #C9423B",
"F  c #D34139",
"G  c #DB4039",
"H  c #E2433B",
"J  c #E5443C",
"K  c #C45650",
"L  c #DD4D47",
"P  c #C46A64",
"I  c #C46C66",
"U  c #C57D77",
"Y  c #DC6763",
"T  c #ED5952",
"R  c #ED5A52",
"E  c #F24840",
"W  c #FB4D44",
"Q  c #FB5046",
"!  c #FB5147",
"~  c #FB534A",
"^  c #FC554B",
"/  c #FC564C",
"(  c #FC594E",
")  c #FF584F",
"_  c #FF5A50",
"`  c #FF6258",
"'  c #FF645A",
"]  c #FF6A5E",
"[  c #FF6A5F",
"{  c #E36964",
"}  c #FF6C61",
"|  c #FF6D61",
" . c #FF6E65",
".. c #FF7067",
"X. c #FF796F",
"o. c #F47E75",
"O. c #FF7B71",
"+. c #C58079",
"@. c #F48076",
"#. c #FF8277",
"$. c #FF867B",
"%. c #FF877C",
"&. c #918D8D",
"*. c #958F8F",
"=. c #939393",
"-. c #9B9898",
";. c #9F9E9F",
":. c #A09C9C",
">. c #A0A0A0",
",. c #A7A6A7",
"<. c #AAAAAA",
"1. c #ABAAAB",
"2. c #B7B6B7",
"3. c #BFBEBF",
"4. c #DD8C89",
"5. c #D3948B",
"6. c #D3958C",
"7. c #EB8C82",
"8. c #EB9086",
"9. c #FE8D83",
"0. c #FE8E83",
"q. c #FE9288",
"w. c #FE9489",
"e. c #FE958A",
"r. c #FE968B",
"t. c #FA9C92",
"y. c #FAA095",
"u. c #FEA398",
"i. c #FEA499",
"p. c #EDB1AE",
"a. c #C3C2C3",
"s. c #C4C3C4",
"d. c #C6C5C6",
"f. c #C6C6C6",
"g. c #CACACA",
"h. c gray80",
"j. c #CDCDCD",
"k. c #CECECE",
"l. c #D0D0D0",
"z. c gray82",
"x. c #D2D2D2",
"c. c LightGray",
"v. c gray83",
"b. c #D5D5D5",
"n. c gray84",
"m. c #D7D7D7",
"M. c #D8D7D8",
"N. c #D8D8D8",
"B. c #D9D8D9",
"V. c #DADADA",
"C. c #DBDADB",
"Z. c #DCDBDC",
"A. c gainsboro",
"S. c #DDDCDD",
"D. c #DDDDDD",
"F. c gray87",
"G. c #DFDEDF",
"H. c #DFDFDF",
"J. c #F1CAC9",
"K. c gray88",
"L. c #E1E0E1",
"P. c #E1E1E1",
"I. c gray89",
"U. c #E4E3E4",
"Y. c #E4E4E4",
"T. c gray90",
"R. c #E7E6E7",
"E. c #E7E7E7",
"W. c #E8E7E8",
"Q. c #E9E8E9",
"!. c #E9E9E9",
"~. c #EAE9EA",
"^. c #EAEAEA",
"/. c #ECEBEC",
"(. c #ECECEC",
"). c #EDECED",
"_. c #EEEDEE",
"`. c #F0EFF0",
"'. c #F2F1F2",
"]. c #F4F3F4",
"[. c #F6F5F6",
"{. c #F8F7F8",
/* pixels */
"<.<.<.<.<.<.<.<.<.<.<.<.<.<.<.<.<.<.<.<.",
"{.{.{.{.{.{.{.{.{.{.{.{.{.{.{.{.{.{.{.{.",
"[.[.[.[.[.[.[.[.[.[.[.[.[.[.[.[.[.[.[.[.",
"].].].].].].].].].].].].].].].].].].].].",
"'.'.'.'.'.'.'.'.'.'.'.'.'.'.'.'.'.'.'.'.",
"`.`.`.`.`.`.`.`.I.a.a.G.`.`.`.`.`.`.`.`.",
"_._._._._._.,.3   1 1   o ;._._._._._._.",
"/./././.R.7 > b N V V N n 2 5 I.(.(.(._.",
"^.W.^.W.7 t f l 4.J.J.8.h f x 4 W.W.W.W.",
"W.W.W.:.# s Z S Y p.p.Y S C a : =.R.W.W.",
"R.R.R.X p Z S G L { { L H S C p . I.R.I.",
"I.I.x.O h H J J H H H J J J H h @ g.I.I.",
"H.I.2.# A E E E E E E E E E E Z q <.I.I.",
"F.G.f.e F W W ! ^ / / ^ ~ W W F e 3.F.G.",
"S.S.G.z D ^ / ` } } } } ' _ ~ D r A.A.A.",
"C.C.M.v k T  .O.#.%.%.#.O...T k c M.A.V.",
"M.M.M.h.* K o.0.w.r.e.q.0.@.K ; f.M.M.M.",
"b.M.M.M.:.u I 7.y.i.i.t.@.P u =.V.n.n.n.",
"v.v.v.v.F.-., M +.5.5.U M > &.D.v.v.v.v.",
"x.x.x.x.z.F.b.9 % & & $ 8 x.D.z.x.x.x.x.",
"l.l.l.l.l.l.l.H.(.W.W.(.H.l.l.l.l.l.l.l.",
"k.k.k.k.k.k.k.l.k.k.l.l.l.k.k.k.j.l.j.l.",
"h.h.h.h.h.h.h.h.h.h.h.h.h.h.h.h.h.h.h.h.",
"<.<.<.<.<.<.<.<.<.<.<.<.<.<.<.<.<.<.<.<."
};
