/* XPM */
static char *hide_pressed[] = {
/* columns rows colors chars-per-pixel */
"20 24 185 2",
"   c #503F2C",
".  c #693D0E",
"X  c #683E12",
"o  c #6A3F12",
"O  c #524538",
"+  c #554839",
"@  c #574B3E",
"#  c #72420C",
"$  c #7E470E",
"%  c #7F511C",
"&  c #72502B",
"*  c #72512F",
"=  c #795026",
"-  c #7D5221",
";  c #7E5220",
":  c #7E5423",
">  c #7C5426",
",  c #57514B",
"<  c #5A5550",
"1  c #605C58",
"2  c #615D5A",
"3  c #7A7269",
"4  c #7D766F",
"5  c #853F20",
"6  c #884F11",
"7  c #845318",
"8  c #8B5415",
"9  c #965B16",
"0  c #894121",
"q  c #8A4221",
"w  c #8F4523",
"e  c #845522",
"r  c #865724",
"t  c #8E5F2D",
"y  c #825A31",
"u  c #914623",
"i  c #944724",
"p  c #945F21",
"a  c #945E2B",
"s  c #9F5E38",
"d  c #9F5F39",
"f  c #99601D",
"g  c #8F6639",
"h  c #9B6736",
"j  c #9B7331",
"k  c #AA672E",
"l  c #AA6820",
"z  c #AB6B24",
"x  c #AA682F",
"c  c #A0752F",
"v  c #B56030",
"b  c #B27137",
"n  c #B4783D",
"m  c #B4783E",
"M  c #9D6A4D",
"N  c #9F6D51",
"B  c #887968",
"V  c #A47969",
"C  c #A4796A",
"Z  c #AA7968",
"A  c #CF7A32",
"S  c #D87F34",
"D  c #B58A3D",
"F  c #B68A3D",
"G  c #BC8236",
"H  c #BC8336",
"J  c #8C8176",
"K  c #B99E63",
"L  c #B8A065",
"P  c #D58936",
"I  c #E6943A",
"U  c #CD9D4B",
"Y  c #C7A757",
"T  c #D2AC58",
"R  c #DAAC5C",
"E  c #DAAD5D",
"W  c #C6AE68",
"Q  c #C7AE68",
"!  c #C7B57D",
"~  c #C7B57F",
"^  c #DEB465",
"/  c #DEB667",
"(  c #E79B48",
")  c #E09B61",
"_  c #EBA647",
"`  c #EFA848",
"'  c #F5BC5A",
"]  c #EBAB65",
"[  c #E0BA6B",
"{  c #E1BC6D",
"}  c #E1BD6E",
"|  c #ECCD72",
" . c #ECCE73",
".. c #FACD69",
"X. c #F9D370",
"o. c #918F8D",
"O. c #95918D",
"+. c #939393",
"@. c #9B9998",
"#. c #9F9D9B",
"$. c #9F9E9F",
"%. c #A0A0A0",
"&. c #A7A6A7",
"*. c #AAAAAA",
"=. c #ABAAAB",
"-. c #B7B6B7",
";. c #BFBEBF",
":. c #C7B98F",
">. c #C7BA91",
",. c #DAA689",
"<. c #D4CDAF",
"1. c #D4CDB0",
"2. c #EFCCAD",
"3. c #ECDFAB",
"4. c #FEE189",
"5. c #FEE28C",
"6. c #F5E19C",
"7. c #F5E19D",
"8. c #FEE595",
"9. c #FEE597",
"0. c #FEE79E",
"q. c #ECE0AF",
"w. c #FEE9A3",
"e. c #FFECAC",
"r. c #FFEDAD",
"t. c #FFEEB2",
"y. c #FFEEB3",
"u. c #FFEFB5",
"i. c #FFEFB6",
"p. c #FBEEBE",
"a. c #C3C2C3",
"s. c #C4C3C4",
"d. c #C6C5C6",
"f. c #C6C6C6",
"g. c #CACACA",
"h. c gray80",
"j. c #CDCDCD",
"k. c #CECECE",
"l. c #D0D0D0",
"z. c gray82",
"x. c #D2D2D2",
"c. c LightGray",
"v. c gray83",
"b. c #D5D5D5",
"n. c gray84",
"m. c #D7D7D7",
"M. c #D8D7D8",
"N. c #D8D8D8",
"B. c #D9D8D9",
"V. c #DADADA",
"C. c #DBDADB",
"Z. c #DCDBDC",
"A. c gainsboro",
"S. c #DDDCDD",
"D. c #DDDDDD",
"F. c gray87",
"G. c #DFDEDF",
"H. c #DFDFDF",
"J. c #EFD7C8",
"K. c #FBEFC1",
"L. c #FFF3C5",
"P. c #FFF3C6",
"I. c gray88",
"U. c #E1E0E1",
"Y. c #E1E1E1",
"T. c gray89",
"R. c #E4E3E4",
"E. c #E4E4E4",
"W. c gray90",
"Q. c #E7E6E7",
"!. c #E7E7E7",
"~. c #E8E7E8",
"^. c #E9E8E9",
"/. c #E9E9E9",
"(. c #EAE9EA",
"). c #EAEAEA",
"_. c #ECEBEC",
"`. c #ECECEC",
"'. c #EDECED",
"]. c #EEEDEE",
"[. c #F0EFF0",
"{. c #F2F1F2",
"}. c #F4F3F4",
"|. c #F6F5F6",
" X c #F8F7F8",
/* pixels */
"*.*.*.*.*.*.*.*.*.*.*.*.*.*.*.*.*.*.*.*.",
" X X X X X X X X X X X X X X X X X X X X",
"|.|.|.|.|.|.|.|.|.|.|.|.|.|.|.|.|.|.|.|.",
"}.}.}.}.}.}.}.}.}.}.}.}.}.}.}.}.}.}.}.}.",
"{.{.{.{.{.{.{.{.{.{.{.{.{.{.{.{.{.{.{.{.",
"[.[.[.[.[.[.[.[.T.a.a.G.[.[.[.[.[.[.[.[.",
"].].].].].].&.@ X e r o + $.].].].].].].",
"_._._._.Q.2 = M V Z Z V N y < T._.`.`.`.",
"(.(.^.^.1 a s v ,.J.J.,.v s h , !.^.^.^.",
"!.!.!.$.$ k A S ) 2.2.) S A k 6 +.Q.~.~.",
"Q.E.Q.O l P I I ( ] ] ( I I P z   E.E.Q.",
"T.T.c.. H _ ` _ _ ` ` ` ` ` _ H # g.T.T.",
"T.G.-.8 U ' b 5 5 5 5 5 5 b ' U 9 =.T.I.",
"G.G.f.9 T ..n 0 u i i u q m ..T f ;.G.G.",
"S.S.S.g Y X.R / [ { { [ / E X.Y t A.A.G.",
"S.B.B.J D  .4.9.0.w.w.0.9.5. .F B N.V.V.",
"B.B.n.j.% W 6.e.t.u.u.t.e.7.W 7 f.m.m.B.",
"n.n.n.B.$.j ~ q.L.P.L.p.3.~ c O.V.m.m.m.",
"v.v.v.v.G.@.> L >.<.<.:.K - o.H.x.v.v.v.",
"x.x.x.x.z.A.v.4 * - - & 3 l.G.l.x.x.x.x.",
"l.l.l.l.l.l.l.I.`.^.^.`.I.l.l.l.l.l.l.l.",
"k.k.k.k.k.k.k.k.k.k.k.k.k.k.k.k.k.k.k.k.",
"j.j.j.g.j.g.j.j.j.g.j.g.j.j.g.j.j.g.g.j.",
"*.*.*.*.*.*.*.*.*.*.*.*.*.*.*.*.*.*.*.*."
};
