/* XPM */
static char *hide_active[] = {
/* columns rows colors chars-per-pixel */
"20 24 183 2",
"   c #503F2C",
".  c #693D0E",
"X  c #683E12",
"o  c #6A3F12",
"O  c #524538",
"+  c #554839",
"@  c #574B3E",
"#  c #72420C",
"$  c #7E470E",
"%  c #7F511C",
"&  c #72502B",
"*  c #72512F",
"=  c #795026",
"-  c #7D5221",
";  c #7E5220",
":  c #7E5423",
">  c #7C5426",
",  c #57514B",
"<  c #5A5550",
"1  c #605C58",
"2  c #615D5A",
"3  c #7A7269",
"4  c #7D766F",
"5  c #884F11",
"6  c #845318",
"7  c #8B5415",
"8  c #965B16",
"9  c #845522",
"0  c #865724",
"q  c #8E5F2D",
"w  c #825A31",
"e  c #945F21",
"r  c #945E2B",
"t  c #9F5E38",
"y  c #9F5F39",
"u  c #99601D",
"i  c #8F6639",
"p  c #9B6736",
"a  c #9B7331",
"s  c #AA672E",
"d  c #AA6820",
"f  c #AB6B24",
"g  c #AA682F",
"h  c #A0752F",
"j  c #B56030",
"k  c #9D6A4D",
"l  c #9F6D51",
"z  c #887968",
"x  c #A47969",
"c  c #A4796A",
"v  c #AA7968",
"b  c #CF7A32",
"n  c #D87F34",
"m  c #B58A3D",
"M  c #B68A3D",
"N  c #BC8236",
"B  c #BC8336",
"V  c #8C8176",
"C  c #B99E63",
"Z  c #B8A065",
"A  c #D58936",
"S  c #E6943A",
"D  c #CD9D4B",
"F  c #C7A757",
"G  c #D2AC58",
"H  c #C6AE68",
"J  c #C7AE68",
"K  c #C7B57D",
"L  c #C7B57F",
"P  c #E79B48",
"I  c #E09B61",
"U  c #EBA647",
"Y  c #EFA848",
"T  c #F5BC5A",
"R  c #EBAB65",
"E  c #ECCD72",
"W  c #ECCE73",
"Q  c #FACD69",
"!  c #FACE6D",
"~  c #FACF6E",
"^  c #F9D370",
"/  c #FAD172",
"(  c #FAD274",
")  c #FBD376",
"_  c #FBD377",
"`  c #FDD876",
"'  c #FDD877",
"]  c #918F8D",
"[  c #95918D",
"{  c #939393",
"}  c #9B9998",
"|  c #9F9D9B",
" . c #9F9E9F",
".. c #A0A0A0",
"X. c #A7A6A7",
"o. c #AAAAAA",
"O. c #ABAAAB",
"+. c #B7B6B7",
"@. c #BFBEBF",
"#. c #C7B98F",
"$. c #C7BA91",
"%. c #DAA689",
"&. c #D4CDAF",
"*. c #D4CDB0",
"=. c #FDDC81",
"-. c #FDDC83",
";. c #FDDE89",
":. c #FDDF89",
">. c #FDDF8B",
",. c #EFCCAD",
"<. c #ECDFAB",
"1. c #FEE189",
"2. c #FDE08C",
"3. c #FEE28C",
"4. c #F5E19C",
"5. c #F5E19D",
"6. c #FEE595",
"7. c #FEE597",
"8. c #FEE79E",
"9. c #ECE0AF",
"0. c #FEE9A3",
"q. c #FFECAC",
"w. c #FFEDAD",
"e. c #FFEEB2",
"r. c #FFEEB3",
"t. c #FFEFB5",
"y. c #FFEFB6",
"u. c #FBEEBE",
"i. c #C3C2C3",
"p. c #C4C3C4",
"a. c #C6C5C6",
"s. c #C6C6C6",
"d. c #CACACA",
"f. c gray80",
"g. c #CDCDCD",
"h. c #CECECE",
"j. c #D0D0D0",
"k. c gray82",
"l. c #D2D2D2",
"z. c LightGray",
"x. c gray83",
"c. c #D5D5D5",
"v. c gray84",
"b. c #D7D7D7",
"n. c #D8D7D8",
"m. c #D8D8D8",
"M. c #D9D8D9",
"N. c #DADADA",
"B. c #DBDADB",
"V. c #DCDBDC",
"C. c gainsboro",
"Z. c #DDDCDD",
"A. c #DDDDDD",
"S. c gray87",
"D. c #DFDEDF",
"F. c #DFDFDF",
"G. c #EFD7C8",
"H. c #FBEFC1",
"J. c #FFF3C5",
"K. c #FFF3C6",
"L. c gray88",
"P. c #E1E0E1",
"I. c #E1E1E1",
"U. c gray89",
"Y. c #E4E3E4",
"T. c #E4E4E4",
"R. c gray90",
"E. c #E7E6E7",
"W. c #E7E7E7",
"Q. c #E8E7E8",
"!. c #E9E8E9",
"~. c #E9E9E9",
"^. c #EAE9EA",
"/. c #EAEAEA",
"(. c #ECEBEC",
"). c #ECECEC",
"_. c #EDECED",
"`. c #EEEDEE",
"'. c #F0EFF0",
"]. c #F2F1F2",
"[. c #F4F3F4",
"{. c #F6F5F6",
"}. c #F8F7F8",
/* pixels */
"o.o.o.o.o.o.o.o.o.o.o.o.o.o.o.o.o.o.o.o.",
"}.}.}.}.}.}.}.}.}.}.}.}.}.}.}.}.}.}.}.}.",
"{.{.{.{.{.{.{.{.{.{.{.{.{.{.{.{.{.{.{.{.",
"[.[.[.[.[.[.[.[.[.[.[.[.[.[.[.[.[.[.[.[.",
"].].].].].].].].].].].].].].].].].].].].",
"'.'.'.'.'.'.'.'.U.i.i.D.'.'.'.'.'.'.'.'.",
"`.`.`.`.`.`.X.@ X 9 0 o +  .`.`.`.`.`.`.",
"(.(.(.(.E.2 = k x v v x l w < U.(.(.(.`.",
"^.^.!.!.1 r t j %.G.G.%.j t p , Q.!.!.!.",
"W.W.W. .$ s b n I ,.,.I n b s 5 { E.!.W.",
"E.E.E.O d A S S P R R P S S A f   U.U.E.",
"U.U.l.. B U Y Y U Y Y Y Y Y U B # d.U.U.",
"F.L.+.7 D T T T T T T T T T T D 8 o.U.L.",
"F.F.s.8 G Q Q ~ ^ _ _ ( ~ Q Q G u @.D.D.",
"Z.Z.Z.i F ^ ' =.:.>.>.:.-.' ^ F q N.D.D.",
"V.V.M.V M W :.7.8.0.0.8.7.3.W M z m.N.N.",
"n.n.n.f.% H 5.q.e.t.t.e.w.5.H 6 s.b.m.m.",
"c.n.n.n.| a #.<.J.K.J.u.<.K a [ N.b.c.b.",
"z.z.z.z.S.} - C $.*.&.$.C : ] F.z.z.x.x.",
"z.z.z.z.k.N.z.4 * : % & 3 k.C.k.k.z.z.k.",
"k.k.k.z.k.k.k.F.)./.~.).F.k.k.k.k.k.k.k.",
"g.g.g.g.g.g.g.g.k.g.g.g.g.g.g.g.g.g.g.g.",
"f.f.f.f.f.f.f.f.f.f.f.f.g.f.f.f.f.f.f.f.",
"o.o.o.o.o.o.o.o.o.o.o.o.o.o.o.o.o.o.o.o."
};
