/* XPM */
static char *maximize_pressed[] = {
/* columns rows colors chars-per-pixel */
"20 24 183 2",
"   c #25571E",
".  c #275A1F",
"X  c #275B1F",
"o  c #2F5B19",
"O  c #305B1D",
"+  c #305D1D",
"@  c #295F20",
"#  c #394B30",
"$  c #306319",
"%  c #366B1B",
"&  c #3C751F",
"*  c #296021",
"=  c #2A6221",
"-  c #2E6B24",
";  c #2E6C25",
":  c #39652F",
">  c #3F6F26",
",  c #337729",
"<  c #337829",
"1  c #3F7424",
"2  c #424F3B",
"3  c #44513D",
"4  c #416F2B",
"5  c #446E2F",
"6  c #456734",
"7  c #446C30",
"8  c #486737",
"9  c #43702D",
"0  c #45762E",
"q  c #407822",
"w  c #477730",
"e  c #4D753B",
"r  c #4E7F38",
"t  c #577C3F",
"y  c #587D3F",
"u  c #475341",
"i  c #4F554D",
"p  c #545851",
"a  c #5B5E59",
"s  c #5C5F5B",
"d  c #6F786B",
"f  c #747B71",
"g  c #448124",
"h  c #4A812D",
"j  c #4A852A",
"k  c #4F8036",
"l  c #558D32",
"z  c #588738",
"x  c #5B863C",
"c  c #5C863D",
"v  c #588F35",
"b  c #588939",
"n  c #598E38",
"m  c #578242",
"M  c #598841",
"N  c #539444",
"B  c #539544",
"V  c #648551",
"C  c #678755",
"Z  c #679B42",
"A  c #679C41",
"S  c #6C9E44",
"D  c #6D9E45",
"F  c #6D9362",
"G  c #74836C",
"H  c #788D6A",
"J  c #788E6A",
"K  c #7E8979",
"L  c #789068",
"P  c #6BA044",
"I  c #70A747",
"U  c #75AC4A",
"Y  c #7EB950",
"T  c #81AA57",
"R  c #81B055",
"E  c #87BE5D",
"W  c #89B45C",
"Q  c #83A661",
"!  c #85A664",
"~  c #88AD62",
"^  c #8FBA6F",
"/  c #94B173",
"(  c #96B275",
")  c #8AC559",
"_  c #8CC85A",
"`  c #9CC96C",
"'  c #9CC96D",
"]  c #9AD265",
"[  c #A3D46E",
"{  c #A4D66E",
"}  c #A9D874",
"|  c #AAD976",
" . c #B1DC7F",
".. c #8E918D",
"X. c #90948E",
"o. c #939393",
"O. c #999B98",
"+. c #9C9F9B",
"@. c #9F9E9F",
"#. c #A0B682",
"$. c #A1B784",
"%. c #A1BD8E",
"&. c #A0A0A0",
"*. c #A7A6A7",
"=. c #AAAAAA",
"-. c #ABAAAB",
";. c #B7B6B7",
":. c #BFBEBF",
">. c #BAC79C",
",. c #BAC89C",
"<. c #B3DD81",
"1. c #B3DD82",
"2. c #B5DE85",
"3. c #B7DF87",
"4. c #B8DF87",
"5. c #B9DA8F",
"6. c #BED798",
"7. c #BBDB90",
"8. c #BCE18D",
"9. c #BDE28F",
"0. c #C1D99C",
"q. c #C2E495",
"w. c #C2E496",
"e. c #C8E69E",
"r. c #C9E79E",
"t. c #CCE8A3",
"y. c #CDE9A4",
"u. c #D0E7A9",
"i. c #D3E9AC",
"p. c #D6ECB0",
"a. c #D7EDB1",
"s. c #C3C2C3",
"d. c #C4C3C4",
"f. c #C6C5C6",
"g. c #C6C6C6",
"h. c #CACACA",
"j. c gray80",
"k. c #CDCDCD",
"l. c #CECECE",
"z. c #D0D0D0",
"x. c gray82",
"c. c #D2D2D2",
"v. c LightGray",
"b. c gray83",
"n. c #D5D5D5",
"m. c gray84",
"M. c #D7D7D7",
"N. c #D8D7D8",
"B. c #D8D8D8",
"V. c #D9D8D9",
"C. c #DADADA",
"Z. c #DBDADB",
"A. c #DCDBDC",
"S. c gainsboro",
"D. c #DDDCDD",
"F. c #DDDDDD",
"G. c gray87",
"H. c #DFDEDF",
"J. c #DFDFDF",
"K. c #D4E2CB",
"L. c gray88",
"P. c #E1E0E1",
"I. c #E1E1E1",
"U. c gray89",
"Y. c #E4E3E4",
"T. c #E4E4E4",
"R. c gray90",
"E. c #E7E6E7",
"W. c #E7E7E7",
"Q. c #E8E7E8",
"!. c #E9E8E9",
"~. c #E9E9E9",
"^. c #EAE9EA",
"/. c #EAEAEA",
"(. c #ECEBEC",
"). c #ECECEC",
"_. c #EDECED",
"`. c #EEEDEE",
"'. c #F0EFF0",
"]. c #F2F1F2",
"[. c #F4F3F4",
"{. c #F6F5F6",
"}. c #F8F7F8",
/* pixels */
"=.=.=.=.=.=.=.=.=.=.=.=.=.=.=.=.=.=.=.=.",
"}.}.}.}.}.}.}.}.}.}.}.}.}.}.}.}.}.}.}.}.",
"{.{.{.{.{.{.{.{.{.{.{.{.{.{.{.{.{.{.{.{.",
"[.[.[.[.[.[.[.[.[.[.[.[.[.[.[.[.[.[.[.[.",
"].].].].].].].].].].].].].].].].].].].].",
"'.'.'.'.'.'.'.'.P.d.d.H.'.'.'.'.'.'.'.'.",
"`.`.`.`.`.`.*.u O 0 w + 2 @.(.`.`.`.`.`.",
"(.(.(.(.E.s 5 V J L L J C e p Y.(.(.(.`.",
"~.~.~.~.a k t z %.K.K.%.z t M i ~.~.~.~.",
"~.W.W.@.% x P I ^ F F ^ I S c & o.W.W.W.",
"E.E.E.2 l U Y Y E     E Y Y U v # I.E.W.",
"P.P.v.o D ) _ ) _     _ _ _ ) D $ j.I.I.",
"P.P.;.1 R ] : X   X       : ] R q -.I.P.",
"J.J.g.j W { : X X * * * X : { W j :.L.J.",
"A.J.A.m T [ }  .4.; - 4.1.| [ T r J.J.J.",
"Z.Z.N.K A ` 1.9.q.< , q.9.2.' A G b.Z.C.",
"N.Z.M.k.> ~ 5.e.y.B B y.e.7.~ 1 g.M.Z.M.",
"b.b.b.Z.+.b ( 0.i.a.a.u.6.( n ..C.b.b.M.",
"b.b.b.b.J.O.5 ! $.,.,.#.Q 5 ..J.v.v.b.v.",
"c.c.c.c.l.J.b.f 6 9 > 6 d c.S.c.v.v.v.c.",
"l.c.l.c.c.c.l.P.`.~.~.).P.c.l.c.c.l.c.l.",
"l.l.k.k.k.k.k.k.l.k.l.l.k.l.k.k.l.l.l.l.",
"k.k.j.j.j.j.k.k.j.j.j.j.k.j.j.j.j.j.j.j.",
"=.=.=.=.=.=.=.=.=.=.=.=.=.=.=.=.=.=.=.=."
};
