/* XPM */
static char *maximize_active[] = {
/* columns rows colors chars-per-pixel */
"20 24 184 2",
"   c #2F5B19",
".  c #305B1D",
"X  c #305D1D",
"o  c #394B30",
"O  c #306319",
"+  c #366B1B",
"@  c #3C751F",
"#  c #3F6F26",
"$  c #3F7424",
"%  c #424F3B",
"&  c #44513D",
"*  c #416F2B",
"=  c #446E2F",
"-  c #456734",
";  c #446C30",
":  c #486737",
">  c #43702D",
",  c #45762E",
"<  c #407822",
"1  c #477730",
"2  c #4D753B",
"3  c #4E7F38",
"4  c #577C3F",
"5  c #587D3F",
"6  c #475341",
"7  c #4F554D",
"8  c #545851",
"9  c #5B5E59",
"0  c #5C5F5B",
"q  c #6F786B",
"w  c #747B71",
"e  c #448124",
"r  c #4A812D",
"t  c #4A852A",
"y  c #4F8036",
"u  c #558D32",
"i  c #588738",
"p  c #5B863C",
"a  c #5C863D",
"s  c #588F35",
"d  c #588939",
"f  c #598E38",
"g  c #578242",
"h  c #598841",
"j  c #648551",
"k  c #678755",
"l  c #679B42",
"z  c #679C41",
"x  c #6C9E44",
"c  c #6D9E45",
"v  c #74836C",
"b  c #788D6A",
"n  c #788E6A",
"m  c #7E8979",
"M  c #789068",
"N  c #6BA044",
"B  c #70A747",
"V  c #75AC4A",
"C  c #7EB950",
"Z  c #81AA57",
"A  c #81B055",
"S  c #87BE5D",
"D  c #89B45C",
"F  c #83A661",
"G  c #85A664",
"H  c #88AD62",
"J  c #8FBA6F",
"K  c #94B173",
"L  c #96B275",
"P  c #8AC559",
"I  c #8CC85A",
"U  c #9CC96C",
"Y  c #9CC96D",
"T  c #9AC876",
"R  c #9AD265",
"E  c #A3D46E",
"W  c #A4D66E",
"Q  c #A4D76E",
"!  c #A7D871",
"~  c #A7D872",
"^  c #A9D874",
"/  c #AAD976",
"(  c #ABDA77",
")  c #ADDA78",
"_  c #AFDB7B",
"`  c #AFDC7B",
"'  c #B1DC7F",
"]  c #8E918D",
"[  c #90948E",
"{  c #939393",
"}  c #999B98",
"|  c #9C9F9B",
" . c #9F9E9F",
".. c #A0B682",
"X. c #A1B784",
"o. c #A1BD8E",
"O. c #A0A0A0",
"+. c #A7A6A7",
"@. c #AAAAAA",
"#. c #ABAAAB",
"$. c #B7B6B7",
"%. c #BFBEBF",
"&. c #BAC79C",
"*. c #BAC89C",
"=. c #B3DD81",
"-. c #B3DD82",
";. c #B5DE85",
":. c #B7DF87",
">. c #B8DF87",
",. c #B9DA8F",
"<. c #BED798",
"1. c #BBDB90",
"2. c #B9E089",
"3. c #BAE08A",
"4. c #BCE18D",
"5. c #BDE28F",
"6. c #C1D99C",
"7. c #C5DBB5",
"8. c #C2E495",
"9. c #C2E496",
"0. c #C6E69A",
"q. c #C6E69B",
"w. c #C8E69E",
"e. c #C9E79E",
"r. c #CCE8A3",
"t. c #CDE9A4",
"y. c #CFE9A6",
"u. c #CFEAA7",
"i. c #D0E7A9",
"p. c #D3E9AC",
"a. c #D6ECB0",
"s. c #D7EDB1",
"d. c #C3C2C3",
"f. c #C4C3C4",
"g. c #C6C5C6",
"h. c #C6C6C6",
"j. c #CACACA",
"k. c gray80",
"l. c #CDCDCD",
"z. c #CECECE",
"x. c #D0D0D0",
"c. c gray82",
"v. c #D2D2D2",
"b. c LightGray",
"n. c gray83",
"m. c #D5D5D5",
"M. c gray84",
"N. c #D7D7D7",
"B. c #D8D7D8",
"V. c #D8D8D8",
"C. c #D9D8D9",
"Z. c #DADADA",
"A. c #DBDADB",
"S. c #DCDBDC",
"D. c gainsboro",
"F. c #DDDCDD",
"G. c #DDDDDD",
"H. c gray87",
"J. c #DFDEDF",
"K. c #DFDFDF",
"L. c #D4E2CB",
"P. c gray88",
"I. c #E1E0E1",
"U. c #E1E1E1",
"Y. c gray89",
"T. c #E4E3E4",
"R. c #E4E4E4",
"E. c gray90",
"W. c #E7E6E7",
"Q. c #E7E7E7",
"!. c #E8E7E8",
"~. c #E9E8E9",
"^. c #E9E9E9",
"/. c #EAE9EA",
"(. c #EAEAEA",
"). c #ECEBEC",
"_. c #ECECEC",
"`. c #EDECED",
"'. c #EEEDEE",
"]. c #F0EFF0",
"[. c #F2F1F2",
"{. c #F4F3F4",
"}. c #F6F5F6",
"|. c #F8F7F8",
/* pixels */
"@.@.@.@.@.@.@.@.@.@.@.@.@.@.@.@.@.@.@.@.",
"|.|.|.|.|.|.|.|.|.|.|.|.|.|.|.|.|.|.|.|.",
"}.}.}.}.}.}.}.}.}.}.}.}.}.}.}.}.}.}.}.}.",
"{.{.{.{.{.{.{.{.{.{.{.{.{.{.{.{.{.{.{.{.",
"[.[.[.[.[.[.[.[.[.[.[.[.[.[.[.[.[.[.[.[.",
"].].].].].].].].I.f.f.J.].].].].].].].].",
"'.'.'.'.'.'.+.6 . , 1 X %  .).'.'.'.'.'.",
").).).).W.0 = j n M M n k 2 8 T.).).(.'.",
"^.^.^.^.0 y 5 d o.L.L.o.i 4 h 7 Q.^.^.^.",
"Q.W.^. .+ p N B J 7.7.J B x a @ { Q.^.Q.",
"W.R.W.% u V C C S T T S C C V s o Y.R.W.",
"R.I.b.  x P I I I I I I I I P c O j.Y.W.",
"I.I.$.< Z R R R R R R R R R R A < #.Y.I.",
"K.K.g.r D Q Q Q ) ) ` ) ~ Q Q D t %.I.S.",
"S.S.S.g Z E ~ -.:.2.2.>.-./ E Z 3 S.S.S.",
"S.S.N.m l Y -.5.9.q.0.8.5.;.Y z v Z.A.A.",
"V.V.N.l.* D ,.w.t.u.t.t.w.1.H < h.B.Z.N.",
"M.M.M.V.| i L 6.p.s.s.i.<.K s ] Z.N.M.M.",
"b.b.M.b.S.} = G X.*.*...F = ] K.b.M.b.b.",
"b.v.v.v.v.S.n.w : * * - q v.S.v.v.v.v.v.",
"v.v.z.v.v.v.z.I.'.^.^.'.I.v.v.v.z.v.z.v.",
"l.l.l.l.l.l.l.l.l.l.l.l.l.l.l.l.z.z.z.l.",
"j.l.l.l.j.l.l.l.j.l.l.l.l.j.l.j.l.l.j.l.",
"@.@.@.@.@.@.@.@.@.@.@.@.@.@.@.@.@.@.@.@."
};
