/* XPM */
static char *menu_active[] = {
/* columns rows colors chars-per-pixel */
"20 24 178 2",
"   c #153C59",
".  c #193D59",
"X  c #1A3E5B",
"o  c #143F62",
"O  c #2F3E4A",
"+  c #154368",
"@  c #194B72",
"#  c #194D77",
"$  c #1E4E74",
"%  c #3A454F",
"&  c #3C4751",
"*  c #214C6F",
"=  c #254E6F",
"-  c #264E6E",
";  c #2C4F6B",
":  c #2A506F",
">  c #24567E",
",  c #25577F",
"<  c #285071",
"1  c #2B5374",
"2  c #2C5576",
"3  c #2C5779",
"4  c #2F5B7E",
"5  c #314F66",
"6  c #355166",
"7  c #375974",
"8  c #335D7E",
"9  c #414B53",
"0  c #4D5155",
"q  c #515558",
"w  c #595C5E",
"e  c #5B5D5F",
"r  c #6A7177",
"t  c #70767B",
"y  c #1B5480",
"u  c #1E5682",
"i  c #1F5886",
"p  c #215985",
"a  c #245882",
"s  c #225B88",
"d  c #2C658D",
"f  c #246396",
"g  c #276598",
"h  c #26689C",
"j  c #2A6791",
"k  c #3A6486",
"l  c #3E6480",
"z  c #286AA0",
"x  c #296EA5",
"c  c #296EA6",
"v  c #2B73AC",
"b  c #3079B4",
"n  c #317FBD",
"m  c #327FBC",
"M  c #3A7DB2",
"N  c #476A86",
"B  c #4B6D88",
"V  c #5F7A8E",
"C  c #5C7991",
"Z  c #607A8F",
"A  c #6B7883",
"S  c #3A88BA",
"D  c #3281C0",
"F  c #3583C3",
"G  c #3584C3",
"H  c #3991D7",
"J  c #3E99DF",
"K  c #3F9ADF",
"L  c #3F9DE9",
"P  c #4388A9",
"I  c #458AAA",
"U  c #4495BA",
"Y  c #4597BA",
"T  c #5589B2",
"R  c #5991BE",
"E  c #4DA3BC",
"W  c #4FA6BC",
"Q  c #788189",
"!  c #7EA0BB",
"~  c #409FEB",
"^  c #41A1E9",
"/  c #42A2EA",
"(  c #45A7EB",
")  c #46A9EB",
"_  c #49ACEC",
"`  c #44A6F0",
"'  c #45A7F0",
"]  c #4CB1F2",
"[  c #4DB3F2",
"{  c #4EB5F2",
"}  c #51BCEA",
"|  c #53BEEB",
" . c #51B9F3",
".. c #53BCF4",
"X. c #55BEF4",
"o. c #50C3CE",
"O. c #50C4CF",
"+. c #52C2E2",
"@. c #55C6E3",
"#. c #56C0F4",
"$. c #5AC7F5",
"%. c #5BCEF6",
"&. c #5CCEF6",
"*. c #5ECCF6",
"=. c #5ECDF6",
"-. c #5FD3F7",
";. c #5CD7F2",
":. c #5EDAF3",
">. c #60D4F7",
",. c #61D6F7",
"<. c #61D7F7",
"1. c #60DEF7",
"2. c #61DFF7",
"3. c #8D8F90",
"4. c #8F9295",
"5. c #939393",
"6. c #98999B",
"7. c #9F9E9F",
"8. c #9C9EA0",
"9. c #A0A0A0",
"0. c #A7A6A7",
"q. c #AAAAAA",
"w. c #ABAAAB",
"e. c #B7B6B7",
"r. c #BFBEBF",
"t. c #A7C2D7",
"y. c #C3C2C3",
"u. c #C4C3C4",
"i. c #C6C5C6",
"p. c #C6C6C6",
"a. c #CACACA",
"s. c gray80",
"d. c #CDCDCD",
"f. c #CECECE",
"g. c #D0D0D0",
"h. c gray82",
"j. c #D2D2D2",
"k. c LightGray",
"l. c gray83",
"z. c #D5D5D5",
"x. c gray84",
"c. c #D7D7D7",
"v. c #D8D7D8",
"b. c #D8D8D8",
"n. c #D9D8D9",
"m. c #DADADA",
"M. c #DBDADB",
"N. c #DCDBDC",
"B. c gainsboro",
"V. c #DDDCDD",
"C. c #DDDDDD",
"Z. c gray87",
"A. c #DFDEDF",
"S. c #DFDFDF",
"D. c #C3D4E1",
"F. c gray88",
"G. c #E1E0E1",
"H. c #E1E1E1",
"J. c gray89",
"K. c #E4E3E4",
"L. c #E4E4E4",
"P. c gray90",
"I. c #E7E6E7",
"U. c #E7E7E7",
"Y. c #E8E7E8",
"T. c #E9E8E9",
"R. c #E9E9E9",
"E. c #EAE9EA",
"W. c #EAEAEA",
"Q. c #ECEBEC",
"!. c #ECECEC",
"~. c #EDECED",
"^. c #EEEDEE",
"/. c #F0EFF0",
"(. c #F2F1F2",
"). c #F4F3F4",
"_. c #F6F5F6",
"`. c #F8F7F8",
/* pixels */
"q.q.q.q.q.q.q.q.q.q.q.q.q.q.q.q.q.q.q.q.",
"`.`.`.`.`.`.`.`.`.`.`.`.`.`.`.`.`._.`.`.",
"_._._._._._._._._._._._._._._._._._._._.",
").).).).).).).).).).).).).).).).).).).).",
"(.(.(.(.(.(.(.(.(.(.(.(.(.(.(.(.(.(.(.(.",
"/./././././././.F.u.y.A././././.(.^.^.(.",
"^.^.^.^.^.^.0.9 X 1 2 X & 7.^.^.^.^.^.^.",
"Q.Q.Q.Q.I.e ; N V C C V B 7 q J.^.E.^.E.",
"E.E.E.Y.w 4 3 y ! D.D.! u 3 k 0 Y.E.E.E.",
"Y.Y.Y.8.o a f h T t.t.T h f , @ 5.I.I.I.",
"I.I.K.& i z v v M R R M v v z s O J.I.I.",
"J.J.k.  g D n S n D D D D D n g o a.J.K.",
"A.J.e.# b H H H H H H H H H H b y w.F.F.",
"A.A.u.a F ~ L ~ ( _ _ ) / L L F p r.A.A.",
"N.A.M.l n ~ ' [  ..... .[ ' ~ n 8 M.N.A.",
"m.M.c.Q c K [ ..$.=.=.$.X.{ K c A m.m.m.",
"v.m.z.d.* S } %.-.:.<.-.&.| S $ i.z.m.c.",
"z.z.z.m.8.d Y @.:.1.1.;.+.Y j 4.M.z.c.z.",
"z.z.z.z.A.6.1 P W o.o.E P < 3.A.l.z.z.z.",
"h.h.h.h.h.N.z.t 6 - = 6 r h.A.h.h.h.h.h.",
"h.h.g.h.g.h.g.F.^.E.E.!.J.h.g.h.h.h.h.h.",
"d.d.d.d.d.d.d.d.d.d.f.f.d.d.d.d.d.d.d.d.",
"d.s.s.s.s.s.d.d.s.s.s.s.s.s.s.s.d.d.d.a.",
"q.q.q.q.q.q.q.q.q.q.q.q.q.q.q.q.q.q.q.q."
};
