/* XPM */
static char *menu_pressed[] = {
/* columns rows colors chars-per-pixel */
"20 24 185 2",
"   c #153C59",
".  c #193D59",
"X  c #1A3E5B",
"o  c #143F62",
"O  c #2F3E4A",
"+  c #154368",
"@  c #194B72",
"#  c #194D77",
"$  c #1E4E74",
"%  c #1A507C",
"&  c #1B517D",
"*  c #3A454F",
"=  c #3C4751",
"-  c #214C6F",
";  c #254E6F",
":  c #264E6E",
">  c #2C4F6B",
",  c #2A506F",
"<  c #24567E",
"1  c #25577F",
"2  c #285071",
"3  c #2B5374",
"4  c #2C5576",
"5  c #2C5779",
"6  c #2F5B7E",
"7  c #314F66",
"8  c #355166",
"9  c #375974",
"0  c #335D7E",
"q  c #414B53",
"w  c #4D5155",
"e  c #515558",
"r  c #595C5E",
"t  c #5B5D5F",
"y  c #6A7177",
"u  c #70767B",
"i  c #1B5480",
"p  c #1E5682",
"a  c #1F5886",
"s  c #215985",
"d  c #245882",
"f  c #225B88",
"g  c #2C658D",
"h  c #206195",
"j  c #206196",
"k  c #246396",
"l  c #276598",
"z  c #26689C",
"x  c #2A6791",
"c  c #3A6486",
"v  c #3E6480",
"b  c #286AA0",
"n  c #296EA5",
"m  c #296EA6",
"M  c #2570AE",
"N  c #2571AE",
"B  c #2D70A6",
"V  c #2A70A9",
"C  c #2B73AC",
"Z  c #3077B0",
"A  c #3079B4",
"S  c #317FBD",
"D  c #327FBC",
"F  c #3A7DB2",
"G  c #476A86",
"H  c #4B6D88",
"J  c #5F7A8E",
"K  c #5C7991",
"L  c #607A8F",
"P  c #6B7883",
"I  c #3583B8",
"U  c #3685BA",
"Y  c #3A88BA",
"T  c #3281C0",
"R  c #3583C3",
"E  c #3584C3",
"W  c #398EC1",
"Q  c #3A90C2",
"!  c #3F9CC9",
"~  c #3F9DCA",
"^  c #3991D7",
"/  c #3E99DF",
"(  c #3F9ADF",
")  c #3F9DE9",
"_  c #4388A9",
"`  c #458AAA",
"'  c #4495BA",
"]  c #4597BA",
"[  c #5589B2",
"{  c #5991BE",
"}  c #4DA3BC",
"|  c #4FA6BC",
" . c #788189",
".. c #7EA0BB",
"X. c #409FEB",
"o. c #45AAD2",
"O. c #45ABD2",
"+. c #49ACEC",
"@. c #44A6F0",
"#. c #45A7F0",
"$. c #4DB3F2",
"%. c #4EB5F2",
"&. c #51BCEA",
"*. c #53BEEB",
"=. c #55BEF4",
"-. c #50C3CE",
";. c #50C4CF",
":. c #52C2E2",
">. c #55C6E3",
",. c #56C0F4",
"<. c #5BCEF6",
"1. c #5CCEF6",
"2. c #5FD3F7",
"3. c #5CD7F2",
"4. c #5EDAF3",
"5. c #60D4F7",
"6. c #61D6F7",
"7. c #61D7F7",
"8. c #60DEF7",
"9. c #61DFF7",
"0. c #8D8F90",
"q. c #8F9295",
"w. c #939393",
"e. c #98999B",
"r. c #9F9E9F",
"t. c #9C9EA0",
"y. c #A0A0A0",
"u. c #A7A6A7",
"i. c #AAAAAA",
"p. c #ABAAAB",
"a. c #B7B6B7",
"s. c #BFBEBF",
"d. c #A7C2D7",
"f. c #C3C2C3",
"g. c #C4C3C4",
"h. c #C6C5C6",
"j. c #C6C6C6",
"k. c #CACACA",
"l. c gray80",
"z. c #CDCDCD",
"x. c #CECECE",
"c. c #D0D0D0",
"v. c gray82",
"b. c #D2D2D2",
"n. c LightGray",
"m. c gray83",
"M. c #D5D5D5",
"N. c gray84",
"B. c #D7D7D7",
"V. c #D8D7D8",
"C. c #D8D8D8",
"Z. c #D9D8D9",
"A. c #DADADA",
"S. c #DBDADB",
"D. c #DCDBDC",
"F. c gainsboro",
"G. c #DDDCDD",
"H. c #DDDDDD",
"J. c gray87",
"K. c #DFDEDF",
"L. c #DFDFDF",
"P. c #C3D4E1",
"I. c gray88",
"U. c #E1E0E1",
"Y. c #E1E1E1",
"T. c gray89",
"R. c #E4E3E4",
"E. c #E4E4E4",
"W. c gray90",
"Q. c #E7E6E7",
"!. c #E7E7E7",
"~. c #E8E7E8",
"^. c #E9E8E9",
"/. c #E9E9E9",
"(. c #EAE9EA",
"). c #EAEAEA",
"_. c #ECEBEC",
"`. c #ECECEC",
"'. c #EDECED",
"]. c #EEEDEE",
"[. c #F0EFF0",
"{. c #F2F1F2",
"}. c #F4F3F4",
"|. c #F6F5F6",
" X c #F8F7F8",
/* pixels */
"i.i.i.i.i.i.i.i.i.i.i.i.i.i.i.i.i.i.i.i.",
" X X X X X X X X X X X X X X X X X|. X X",
"|.|.|.|.|.|.|.|.|.|.|.|.|.|.|.|.|.|.|.|.",
"}.}.}.}.}.}.}.}.}.}.}.}.}.}.}.}.}.}.}.}.",
"{.{.{.{.{.{.{.{.{.{.{.{.{.{.{.{.{.{.{.{.",
"[.[.[.[.[.[.[.[.I.g.f.K.[.[.[.[.{.].].{.",
"].].].].].].u.q X 3 4 X = r.].].].].].].",
"_._._._.Q.t > G J K K J H 9 e T.].(.].(.",
"(.(.(.~.t 6 5 p ..P.P...p 5 c w !.).).).",
"~.~.~.t.+ < k z [ d.d.[ z k 1 @ w.Q.~.Q.",
"Q.R.W.= a z C C F { { F C C b f O R.R.Q.",
"T.R.b.  z I T T S T T T T T S l o k.T.R.",
"L.I.a.# A ^ V B ^ ^ ^ ^ m V ^ A % p.T.I.",
"L.L.h.d E ) Z % I +.+.U & Z X.E a s.L.L.",
"K.K.D.v S ) @.W k ! ! k W #.X.S 0 D.D.K.",
"S.D.D.P n / $.=.o.M M o.,.%.( n P A.A.A.",
"V.V.B.z.- Y &.1.2.7.7.2.<.*.Y $ j.B.C.C.",
"N.N.N.V.t.g ] >.4.4.9.4.:.' x q.A.N.N.N.",
"N.N.n.N.K.e.> ` | ;.;.} _ 2 0.K.n.N.m.N.",
"v.v.v.v.c.D.N.u 8 ; ; 7 y v.K.v.v.v.v.v.",
"c.c.c.c.c.c.c.Y.`.(.).`.T.c.c.c.c.c.c.c.",
"x.z.z.z.z.x.x.z.z.z.z.c.z.z.z.z.z.z.z.z.",
"z.z.k.z.z.z.z.z.z.k.z.k.z.z.z.z.z.z.z.z.",
"i.i.i.i.i.i.i.i.i.i.i.i.i.i.i.i.i.i.i.i."
};
