/* XPM */
static char *shade_active[] = {
/* columns rows colors chars-per-pixel */
"20 24 134 2",
"   c #393939",
".  c gray23",
"X  c #3C3B3B",
"o  c gray24",
"O  c #414141",
"+  c gray27",
"@  c #474647",
"#  c #494949",
"$  c gray29",
"%  c #4B4B4B",
"&  c gray30",
"*  c #4E4E4E",
"=  c gray31",
"-  c #515151",
";  c #535353",
":  c gray33",
">  c #565656",
",  c #585858",
"<  c gray35",
"1  c #5A5A5A",
"2  c gray36",
"3  c #5D5D5D",
"4  c gray37",
"5  c #5F5F5F",
"6  c #606060",
"7  c #646464",
"8  c gray40",
"9  c #676767",
"0  c DimGray",
"q  c #6C6C6C",
"w  c gray43",
"e  c #717171",
"r  c gray45",
"t  c #767676",
"y  c #777777",
"u  c gray47",
"i  c #797979",
"p  c #7B7B7B",
"a  c gray50",
"s  c #808080",
"d  c #818181",
"f  c gray51",
"g  c gray52",
"h  c #898989",
"j  c #8B8B8B",
"k  c gray55",
"l  c #8D8D8D",
"z  c #8E8E8E",
"x  c gray56",
"c  c #909090",
"v  c #929292",
"b  c #939393",
"n  c #959595",
"m  c gray59",
"M  c #979797",
"N  c #989898",
"B  c gray60",
"V  c #9B9B9B",
"C  c gray61",
"Z  c gray62",
"A  c #9F9E9F",
"S  c #A0A0A0",
"D  c #A2A2A2",
"F  c #A5A5A5",
"G  c #A7A6A7",
"H  c #A7A7A7",
"J  c #A9A9A9",
"K  c #AAAAAA",
"L  c #ABAAAB",
"P  c #ACACAC",
"I  c #AFAFAF",
"U  c gray69",
"Y  c #B6B6B6",
"T  c #B7B6B7",
"R  c gray72",
"E  c #B9B9B9",
"W  c #BBBBBB",
"Q  c #BFBEBF",
"!  c #C0C0C0",
"~  c #C3C2C3",
"^  c #C4C3C4",
"/  c gray77",
"(  c #C5C5C5",
")  c #C6C5C6",
"_  c #C6C6C6",
"`  c #C8C8C8",
"'  c #CACACA",
"]  c #CBCBCB",
"[  c gray80",
"{  c #CDCDCD",
"}  c #CECECE",
"|  c #D0D0D0",
" . c gray82",
".. c #D2D2D2",
"X. c LightGray",
"o. c gray83",
"O. c #D5D5D5",
"+. c gray84",
"@. c #D7D7D7",
"#. c #D8D7D8",
"$. c #D8D8D8",
"%. c #D9D8D9",
"&. c #DADADA",
"*. c #DBDADB",
"=. c #DCDBDC",
"-. c gainsboro",
";. c #DDDCDD",
":. c #DDDDDD",
">. c gray87",
",. c #DFDEDF",
"<. c #DFDFDF",
"1. c gray88",
"2. c #E1E0E1",
"3. c #E1E1E1",
"4. c gray89",
"5. c #E4E3E4",
"6. c #E4E4E4",
"7. c gray90",
"8. c #E7E6E7",
"9. c #E7E7E7",
"0. c #E8E7E8",
"q. c #E9E8E9",
"w. c #E9E9E9",
"e. c #EAE9EA",
"r. c #EAEAEA",
"t. c #ECEBEC",
"y. c #ECECEC",
"u. c #EDECED",
"i. c #EEEDEE",
"p. c #F0EFF0",
"a. c #F2F1F2",
"s. c #F4F3F4",
"d. c #F6F5F6",
"f. c #F8F7F8",
/* pixels */
"K K K K K K K K K K K K K K K K K K K K ",
"f.f.f.f.f.f.f.f.f.f.f.f.f.f.f.f.f.f.f.f.",
"d.d.d.d.d.d.d.d.d.d.d.d.d.d.d.d.d.d.d.d.",
"s.s.s.s.s.s.s.s.s.s.s.s.s.s.s.s.s.s.s.s.",
"a.a.a.a.a.a.a.a.a.a.a.a.a.a.a.a.a.a.a.a.",
"p.p.p.p.p.p.p.p.1.^ ~ ,.p.p.p.p.p.a.p.p.",
"i.i.i.i.i.i.G $ . ; ; X @ A i.i.i.i.i.i.",
"t.t.t.t.8.3 & w a a s a e , : 4.w.i.w.i.",
"w.w.w.9.3 3 3 3 G o.@.G 3 3 7 ; 8.w.w.w.",
"9.9.9.S O , 9 q k ~ ~ k q 9 , # n 9.8.9.",
"8.8.8.+ : 9 e e p c c p e e 0 , o 8.3.8.",
"3.3.... 5 y p y i i i i i i y 5 o ] 3.8.",
"3.1.Y $ q f f d f f f f f f f q & K 1.1.",
"1.1.~ ; r h h x N B A N x h h r : Q ,.,.",
"*.,.,.5 e k n S K I I P G N k e , ,.-.-.",
"*.*.@.f 9 x J R ~ _ ~ ! R P x 9 t *.*.-.",
"*.o.@.{ $ g E ] ..@.....] W f & _ @.@.@.",
"*.o.o.*.A 7 N _ -.3.1.@./ N 9 x -.@.@.@.",
"..o.o.o.,.N - x J ~ / J k & x 1.......@.",
"........| ,.o.t - & & & e ..-...........",
"| | | | | | | 1.w.w.w.w.1.| | | | | | | ",
"{ { | | | { | { | | | | | { | | | { | | ",
"] ] { ] ] ] ] ] { ] ] ] ] ] { ] ] ] ] ] ",
"K K K K K K K K K K K K K K K K K K K K "
};
