/* XPM */
static char *shade_pressed[] = {
/* columns rows colors chars-per-pixel */
"20 24 137 2",
"   c #252525",
".  c gray15",
"X  c #272727",
"o  c #393939",
"O  c gray23",
"+  c #3C3B3B",
"@  c gray24",
"#  c #414141",
"$  c gray27",
"%  c #474647",
"&  c #494949",
"*  c gray29",
"=  c #4B4B4B",
"-  c gray30",
";  c #4E4E4E",
":  c gray31",
">  c #515151",
",  c #535353",
"<  c gray33",
"1  c #555555",
"2  c #565656",
"3  c #585858",
"4  c gray35",
"5  c #5A5A5A",
"6  c gray36",
"7  c #5D5D5D",
"8  c gray37",
"9  c #5F5F5F",
"0  c #606060",
"q  c #646464",
"w  c #656565",
"e  c gray40",
"r  c #676767",
"t  c #686868",
"y  c DimGray",
"u  c #6C6C6C",
"i  c gray43",
"p  c gray44",
"a  c #717171",
"s  c #727272",
"d  c gray45",
"f  c #767676",
"g  c #777777",
"h  c gray47",
"j  c #797979",
"k  c #7B7B7B",
"l  c gray50",
"z  c #808080",
"x  c #818181",
"c  c gray51",
"v  c gray52",
"b  c #898989",
"n  c #8B8B8B",
"m  c gray55",
"M  c #8D8D8D",
"N  c #8E8E8E",
"B  c gray56",
"V  c #929292",
"C  c #939393",
"Z  c #979797",
"A  c gray60",
"S  c #9B9B9B",
"D  c gray61",
"F  c gray62",
"G  c #9F9E9F",
"H  c #A0A0A0",
"J  c #A5A5A5",
"K  c #A7A6A7",
"L  c #A7A7A7",
"P  c #A9A9A9",
"I  c #AAAAAA",
"U  c #ABAAAB",
"Y  c #ACACAC",
"T  c #AFAFAF",
"R  c gray69",
"E  c #B6B6B6",
"W  c #B7B6B7",
"Q  c gray72",
"!  c #B9B9B9",
"~  c #BBBBBB",
"^  c #BFBEBF",
"/  c #C0C0C0",
"(  c #C3C2C3",
")  c #C4C3C4",
"_  c gray77",
"`  c #C5C5C5",
"'  c #C6C5C6",
"]  c #C6C6C6",
"[  c #C8C8C8",
"{  c #CACACA",
"}  c #CBCBCB",
"|  c gray80",
" . c #CDCDCD",
".. c #CECECE",
"X. c #D0D0D0",
"o. c gray82",
"O. c #D2D2D2",
"+. c LightGray",
"@. c gray83",
"#. c #D5D5D5",
"$. c gray84",
"%. c #D7D7D7",
"&. c #D8D7D8",
"*. c #D8D8D8",
"=. c #D9D8D9",
"-. c #DADADA",
";. c #DBDADB",
":. c #DCDBDC",
">. c gainsboro",
",. c #DDDCDD",
"<. c #DDDDDD",
"1. c gray87",
"2. c #DFDEDF",
"3. c #DFDFDF",
"4. c gray88",
"5. c #E1E0E1",
"6. c #E1E1E1",
"7. c gray89",
"8. c #E4E3E4",
"9. c #E4E4E4",
"0. c gray90",
"q. c #E7E6E7",
"w. c #E7E7E7",
"e. c #E8E7E8",
"r. c #E9E8E9",
"t. c #E9E9E9",
"y. c #EAE9EA",
"u. c #EAEAEA",
"i. c #ECEBEC",
"p. c #ECECEC",
"a. c #EDECED",
"s. c #EEEDEE",
"d. c #F0EFF0",
"f. c #F2F1F2",
"g. c #F4F3F4",
"h. c #F6F5F6",
"j. c #F8F7F8",
/* pixels */
"I I I I I I I I I I I I I I I I I I I I ",
"j.j.j.j.j.j.j.j.j.j.j.j.j.j.j.j.j.j.j.j.",
"h.h.h.h.h.h.h.h.h.h.h.h.h.h.h.h.h.h.h.h.",
"g.g.g.g.g.g.g.g.g.g.g.g.g.g.g.g.g.g.g.g.",
"f.f.f.f.f.f.f.f.f.f.f.f.f.f.f.f.f.f.f.f.",
"d.d.d.d.d.d.d.d.4.) ( 2.d.d.d.d.d.d.d.d.",
"s.s.s.s.s.s.K * O , , + % G s.s.s.s.s.s.",
"i.i.i.i.q.7 - i l l z l a 3 < 7.i.i.i.s.",
"t.t.t.t.6 4 7 9 K @.%.K 7 7 q , w.t.t.t.",
"t.w.w.F # 4 r u m ( ( m u r 3 & V q.w.w.",
"q.q.q.$ 3 r a a k 0 0 k a a t 4 @ q.7.q.",
"7.4.O.O 9 g j j 1     j j j g 9 @ } 4.q.",
"4.4.E * u c c 4   3 4   c c c u : I 4.4.",
"2.2.( , d b 7   r D D r X 7 b d , ^ 2.2.",
";.2.2.0 i B r i Y T T Y a r m a 4 >.>.>.",
";.;.%.c r B L E ( ] _ ( ! Y B r g ;.;.;.",
";.@.%. .* v ! } O.@.O.O.} ~ c - ] %.%.%.",
";.@.@.;.G q A ] >.7.7.%._ Z r V >.%.%.%.",
"O.@.@.@.1.Z : B Y ( ( L n : B 1.O.O.O.%.",
"O.O.O.O.O.2.@.g : - - - d X.>.X.O.O.O.O.",
"X.X.X.X.X.X.X.1.p.p.w.p.1.X.X.X.X.X.X.X.",
" .X. .X. .X. .X. .X.X. .X.X. .X.} X. .X.",
"} } } } } } } } } } } } } } } } } } } } ",
"I Y I I Y I I Y I I Y I I Y I I Y Y I Y "
};
