/* XPM */
static char *stick_inactive[] = {
/* columns rows colors chars-per-pixel */
"20 24 99 2",
"   c gray61",
".  c #9F9F9F",
"X  c #A0A0A0",
"o  c gray63",
"O  c #A2A2A2",
"+  c #A3A2A3",
"@  c gray64",
"#  c #A4A4A4",
"$  c gray65",
"%  c #A7A7A7",
"&  c #A9A9A9",
"*  c #AAAAAA",
"=  c gray67",
"-  c #ACACAC",
";  c gray68",
":  c #AEAEAE",
">  c #AFAFAF",
",  c gray69",
"<  c #B1B1B1",
"1  c gray70",
"2  c #B4B4B4",
"3  c gray71",
"4  c #B6B6B6",
"5  c #B7B7B7",
"6  c #BBBBBB",
"7  c #BCBCBC",
"8  c gray74",
"9  c gray",
"0  c gray75",
"q  c #C0C0C0",
"w  c gray76",
"e  c #C3C3C3",
"r  c gray77",
"t  c #C5C5C5",
"y  c #C6C6C6",
"u  c #C7C6C7",
"i  c gray78",
"p  c #C8C8C8",
"a  c gray79",
"s  c #CAC9CA",
"d  c #CACACA",
"f  c #CBCBCB",
"g  c gray80",
"h  c #CDCDCD",
"j  c #CECDCE",
"k  c #CECECE",
"l  c gray81",
"z  c #D0CFD0",
"x  c #D0D0D0",
"c  c gray82",
"v  c #D2D2D2",
"b  c LightGray",
"n  c gray83",
"m  c #D5D5D5",
"M  c #D6D5D6",
"N  c gray84",
"B  c #D7D7D7",
"V  c #D8D7D8",
"C  c #D8D8D8",
"Z  c #D9D8D9",
"A  c #DADADA",
"S  c #DBDADB",
"D  c #DCDBDC",
"F  c gainsboro",
"G  c #DDDCDD",
"H  c #DDDDDD",
"J  c gray87",
"K  c #DFDEDF",
"L  c #DFDFDF",
"P  c gray88",
"I  c #E1E0E1",
"U  c #E1E1E1",
"Y  c #E2E1E2",
"T  c #E2E2E2",
"R  c #E3E2E3",
"E  c gray89",
"W  c #E4E4E4",
"Q  c #E5E4E5",
"!  c gray90",
"~  c #E7E6E7",
"^  c #E7E7E7",
"/  c #E8E7E8",
"(  c #E9E9E9",
")  c #EAE9EA",
"_  c #EAEAEA",
"`  c gray92",
"'  c #ECEBEC",
"]  c #ECECEC",
"[  c #EDECED",
"{  c #EEEDEE",
"}  c #EEEEEE",
"|  c #EFEFEF",
" . c #F0EFF0",
".. c #F1F1F1",
"X. c #F2F1F2",
"o. c gray95",
"O. c #F4F3F4",
"+. c #F6F5F6",
"@. c #F8F7F8",
/* pixels */
"* * * * * * * * * * * * * * * * * * * * ",
"@.@.@.@.@.@.@.@.@.@.@.@.@.@.@.@.@.@.@.@.",
"+.+.+.+.+.+.+.+.+.+.+.+.+.+.+.+.+.+.+.+.",
"O.O.O.O.O.O.O.O.O.O.O.O.O.O.O.O.O.O.O.O.",
"X.X.X.X.X.X.X.X.X.X.X.X.X.X.X.X.X.X.X.X.",
" . . . . . . . .R N N R  . . . . . . . .",
"{ { { { { { a + . > > . . u ' { { { { { ",
"' ' ' ' ~ * * 7 u i a i 7 > $ ~ ' ' ' _ ",
"_ _ _ ^ * , 5 7 Z { } A 7 5 3 $ ~ _ _ _ ",
"^ ^ ^ e $ 3 q e x ^ ^ x e q 3 * q ^ ~ ~ ",
"~ ~ W . , q e e a x x i e e q <   W W ~ ",
"W U B O 5 e i i u u u u i u u 5 $ x U W ",
"H U a * 7 i a i i i a i i i i 7 = u H U ",
"H U l > 7 a f f x b b x f a i q > x H U ",
"D D S 3 7 i h N B A A B b x f 7 < D D D ",
"S S B w 5 f B A W W W U H B f 3 q Z A Z ",
"Z Z B D = u D ^ _ _ _ _ ^ H e = H B B B ",
"N N N Z b 3 x ~ } X.o.} ~ x 5 x A B B B ",
"N N N N H x > i N W U N i , f H b b b b ",
"x x x x b A ^ q * = = = 7 ^ A b b x b b ",
"x x x x x x x H _ } } _ H x x x x x x x ",
"h x h x x h x x h x x x x x h x x f x x ",
"f f f f f f f f f f f f f h f f f f f f ",
"= = * = = * = = * = = * * = * * = = = = "
};
