/* XPM */
static char *stick_pressed[] = {
/* columns rows colors chars-per-pixel */
"20 24 182 2",
"   c #421D51",
".  c #471E59",
"X  c #442052",
"o  c #452154",
"O  c #4D225F",
"+  c #413347",
"@  c #483D4C",
"#  c #4A3E4E",
"$  c #542668",
"%  c #56276A",
"&  c #542C66",
"*  c #562F66",
"=  c #562F67",
"-  c #572A6A",
";  c #582D6A",
":  c #5A2E6D",
">  c #5D2A72",
",  c #563564",
"<  c #543961",
"1  c #553C61",
"2  c #593269",
"3  c #583468",
"4  c #5B346C",
"5  c #5D366D",
"6  c #5F3173",
"7  c #612F76",
"8  c #603F6D",
"9  c #643578",
"0  c #643D75",
"q  c #643C76",
"w  c #643E75",
"e  c #653F75",
"r  c #67387B",
"t  c #6A3E7C",
"y  c #4D4351",
"u  c #524D54",
"i  c #565157",
"p  c #5D595E",
"a  c #5E5B5F",
"s  c #654474",
"d  c #664474",
"f  c #6A4779",
"g  c #6E477E",
"h  c #736C76",
"j  c #77717A",
"k  c #6A3680",
"l  c #723C85",
"z  c #753C88",
"x  c #773E8F",
"c  c #783D91",
"v  c #783D92",
"b  c #6F4282",
"n  c #76468A",
"m  c #7A498E",
"M  c #7B4990",
"N  c #7D4C92",
"B  c #755882",
"V  c #785B84",
"C  c #7A5988",
"Z  c #7B6E80",
"A  c #804C97",
"S  c #834F9A",
"D  c #8B44A9",
"F  c #8B44AA",
"G  c #8A54A2",
"H  c #8C55A4",
"J  c #8C5CA1",
"K  c #965EA7",
"L  c #9358A9",
"P  c #9359A9",
"I  c #955AAE",
"U  c #9D5FB7",
"Y  c #846F8D",
"T  c #856E8F",
"R  c #837A87",
"E  c #9862A8",
"W  c #9871A8",
"Q  c #A15DBD",
"!  c #A25EBD",
"~  c #A062BA",
"^  c #A163BB",
"/  c #A160BC",
"(  c #A269B4",
")  c #A46BB5",
"_  c #A769BF",
"`  c #AF78BC",
"'  c #B17ABD",
"]  c #A766C2",
"[  c #A967C3",
"{  c #A96AC0",
"}  c #B271CA",
"|  c #B473CB",
" . c #BA79CF",
".. c #BA73D3",
"X. c #BD76D5",
"o. c #BB7AD0",
"O. c #C57FDA",
"+. c #D079DC",
"@. c #D17ADD",
"#. c #8F8D90",
"$. c #939393",
"%. c #939094",
"&. c #9A989A",
"*. c #9E9C9F",
"=. c #9F9E9F",
"-. c #AC92B7",
";. c #A0A0A0",
":. c #A7A6A7",
">. c #AAAAAA",
",. c #ABAAAB",
"<. c #B7B6B7",
"1. c #BFBEBF",
"2. c #C98BCF",
"3. c #C98CCF",
"4. c #C681DA",
"5. c #C681DB",
"6. c #C883DB",
"7. c #CC88DF",
"8. c #CD88DF",
"9. c #CE89DD",
"0. c #D18DDF",
"q. c #D790E8",
"w. c #D791E8",
"e. c #DB96EB",
"r. c #DC97EB",
"t. c #C3B0CB",
"y. c #E199EE",
"u. c #E39DEF",
"i. c #E7A0F3",
"p. c #E8A1F4",
"a. c #C3C2C3",
"s. c #C4C3C4",
"d. c #C6C5C6",
"f. c #C6C6C6",
"g. c #CACACA",
"h. c gray80",
"j. c #CDCDCD",
"k. c #CECECE",
"l. c #D9CDDF",
"z. c #D0D0D0",
"x. c gray82",
"c. c #D2D2D2",
"v. c LightGray",
"b. c gray83",
"n. c #D5D5D5",
"m. c gray84",
"M. c #D7D7D7",
"N. c #D8D7D8",
"B. c #D8D8D8",
"V. c #D9D8D9",
"C. c #DADADA",
"Z. c #DBDADB",
"A. c #DCDBDC",
"S. c gainsboro",
"D. c #DDDCDD",
"F. c #DDDDDD",
"G. c gray87",
"H. c #DFDEDF",
"J. c #DFDFDF",
"K. c gray88",
"L. c #E1E0E1",
"P. c #E1E1E1",
"I. c gray89",
"U. c #E4E3E4",
"Y. c #E4E4E4",
"T. c gray90",
"R. c #E7E6E7",
"E. c #E7E7E7",
"W. c #E8E7E8",
"Q. c #E9E8E9",
"!. c #E9E9E9",
"~. c #EAE9EA",
"^. c #EAEAEA",
"/. c #ECEBEC",
"(. c #ECECEC",
"). c #EDECED",
"_. c #EEEDEE",
"`. c #F0EFF0",
"'. c #F2F1F2",
"]. c #F4F3F4",
"[. c #F6F5F6",
"{. c #F8F7F8",
/* pixels */
">.>.>.>.>.>.>.>.>.>.>.>.>.>.>.>.>.>.>.>.",
"{.{.{.{.{.{.{.{.{.{.{.{.{.{.{.{.{.{.{.{.",
"[.[.[.[.[.[.[.[.[.[.[.[.[.[.[.[.[.[.[.[.",
"].].].].].].].].].].].].].].].].].].].].",
"'.'.'.'.'.'.'.'.'.'.'.'.'.'.'.'.'.'.'.'.",
"`.`.`.`.`.`.`.`.I.s.a.J.`.`.`.`.`.`.`.`.",
"_._._._._._.:.y   4 5 X @ *._._._._._._.",
"/./././.R.a , B Y T T Y V s u I./././._.",
"/.W.W.W.p q d f -.l.l.-.t d g u W.W./.W.",
"W.W.W.=.O q n M W t.t.W M n e $ %.R.W.E.",
"R.R.R.@ 9 M S S J V C J S S M r + I.I.R.",
"I.I.c.  b G H H H ; ; H H H G b . g.I.I.",
"J.I.<.$ N I I I I : : I I I I M > ,.I.L.",
"G.G.d.6 A U U / { k k { ^ U U S 7 1.G.H.",
"A.G.A.f A ! ] }  .v x o.| [ / A e A.G.G.",
"Z.Z.N.R x Q ..O.8.F F 8.6.X.! x Z N.Z.N.",
"N.N.M.j.& L 5.q.r.@.+.r.q.6.L - d.m.M.N.",
"m.m.m.N.=.l ) 9.u.i.i.y.9.( z %.N.m.m.m.",
"m.m.c.m.F.&.4 E ` 3.3.` E 3 #.G.m.m.b.m.",
"x.x.x.x.x.S.m.j 1 * * < h z.G.x.x.x.x.x.",
"z.z.z.z.z.z.z.F.(.(.E.(.F.z.z.z.z.z.z.x.",
"j.j.z.z.z.j.z.z.j.z.z.j.z.j.z.z.j.z.j.j.",
"g.j.g.j.j.j.g.g.j.j.g.j.g.j.g.j.h.h.j.h.",
">.>.>.>.>.>.>.>.>.>.>.>.>.>.>.>.>.>.>.>."
};
