/* XPM */
static char *stick_active[] = {
/* columns rows colors chars-per-pixel */
"20 24 181 2",
"   c #421D51",
".  c #471E59",
"X  c #442052",
"o  c #452154",
"O  c #4D225F",
"+  c #413347",
"@  c #483D4C",
"#  c #4A3E4E",
"$  c #542668",
"%  c #56276A",
"&  c #542C66",
"*  c #562F66",
"=  c #562F67",
"-  c #572A6A",
";  c #5D2A72",
":  c #563564",
">  c #543961",
",  c #553C61",
"<  c #593269",
"1  c #583468",
"2  c #5B346C",
"3  c #5D366D",
"4  c #5F3173",
"5  c #612F76",
"6  c #603F6D",
"7  c #643578",
"8  c #643D75",
"9  c #643C76",
"0  c #643E75",
"q  c #653F75",
"w  c #67387B",
"e  c #6A3E7C",
"r  c #4D4351",
"t  c #524D54",
"y  c #565157",
"u  c #5D595E",
"i  c #5E5B5F",
"p  c #654474",
"a  c #664474",
"s  c #6A4779",
"d  c #6E477E",
"f  c #736C76",
"g  c #77717A",
"h  c #723C85",
"j  c #753C88",
"k  c #773E8F",
"l  c #6F4282",
"z  c #76468A",
"x  c #7A498E",
"c  c #7B4990",
"v  c #7D4C92",
"b  c #755882",
"n  c #785B84",
"m  c #7B6E80",
"M  c #804C97",
"N  c #834F9A",
"B  c #8A54A2",
"V  c #8C55A4",
"C  c #8C5CA1",
"Z  c #965EA7",
"A  c #9358A9",
"S  c #9359A9",
"D  c #955AAE",
"F  c #9D5FB7",
"G  c #846F8D",
"H  c #856E8F",
"J  c #837A87",
"K  c #9862A8",
"L  c #9871A8",
"P  c #9E75B0",
"I  c #A15DBD",
"U  c #A25EBD",
"Y  c #A062BA",
"T  c #A163BB",
"R  c #A160BC",
"E  c #A269B4",
"W  c #A46BB5",
"Q  c #A769BF",
"!  c #AF78BC",
"~  c #B17ABD",
"^  c #A766C2",
"/  c #A967C3",
"(  c #A96AC0",
")  c #AC6DC2",
"_  c #AC6DC3",
"`  c #B271CA",
"'  c #B473CB",
"]  c #BA79CF",
"[  c #BA73D3",
"{  c #BD76D5",
"}  c #BB7AD0",
"|  c #BD7CD1",
" . c #BE7DD2",
".. c #C57FDA",
"X. c #8F8D90",
"o. c #939393",
"O. c #939094",
"+. c #9A989A",
"@. c #9E9C9F",
"#. c #9F9E9F",
"$. c #AC92B7",
"%. c #A0A0A0",
"&. c #A7A6A7",
"*. c #AAAAAA",
"=. c #ABAAAB",
"-. c #B7B6B7",
";. c #BFBEBF",
":. c #C98BCF",
">. c #C98CCF",
",. c #C681DA",
"<. c #C681DB",
"1. c #C883DB",
"2. c #CC88DF",
"3. c #CD88DF",
"4. c #CE89DD",
"5. c #D18DDF",
"6. c #D18DE2",
"7. c #D18EE2",
"8. c #D790E8",
"9. c #D791E8",
"0. c #DB96EB",
"q. c #DC97EB",
"w. c #DD99EC",
"e. c #DE9AEC",
"r. c #CAB6D2",
"t. c #E199EE",
"y. c #E39DEF",
"u. c #E7A0F3",
"i. c #E8A1F4",
"p. c #C3C2C3",
"a. c #C4C3C4",
"s. c #C6C5C6",
"d. c #C6C6C6",
"f. c #CACACA",
"g. c gray80",
"h. c #CDCDCD",
"j. c #CECECE",
"k. c #D9CDDF",
"l. c #D0D0D0",
"z. c gray82",
"x. c #D2D2D2",
"c. c LightGray",
"v. c gray83",
"b. c #D5D5D5",
"n. c gray84",
"m. c #D7D7D7",
"M. c #D8D7D8",
"N. c #D8D8D8",
"B. c #D9D8D9",
"V. c #DADADA",
"C. c #DBDADB",
"Z. c #DCDBDC",
"A. c gainsboro",
"S. c #DDDCDD",
"D. c #DDDDDD",
"F. c gray87",
"G. c #DFDEDF",
"H. c #DFDFDF",
"J. c gray88",
"K. c #E1E0E1",
"L. c #E1E1E1",
"P. c gray89",
"I. c #E4E3E4",
"U. c #E4E4E4",
"Y. c gray90",
"T. c #E7E6E7",
"R. c #E7E7E7",
"E. c #E8E7E8",
"W. c #E9E8E9",
"Q. c #E9E9E9",
"!. c #EAE9EA",
"~. c #EAEAEA",
"^. c #ECEBEC",
"/. c #ECECEC",
"(. c #EDECED",
"). c #EEEDEE",
"_. c #F0EFF0",
"`. c #F2F1F2",
"'. c #F4F3F4",
"]. c #F6F5F6",
"[. c #F8F7F8",
/* pixels */
"*.*.*.*.*.*.*.*.*.*.*.*.*.*.*.*.=.=.*.=.",
"[.[.[.[.[.[.[.[.[.[.[.[.[.[.[.[.[.[.].[.",
"].].].].].].].].].].].].].].].].].].].].",
"'.'.'.'.'.'.'.'.'.'.'.'.'.'.'.'.'.'.'.'.",
"`.`.`.`.`.`.`.`.`.`.`.`.`.`.`.`.`.`.`.`.",
"_._._._._._._._.P.a.p.H._._._._._._._._.",
").).).).).).&.r   2 3 X @ @.).).).).).).",
"^.^.^.^.T.i : b G H H G n p t P.~.).~.).",
"~.E.E.E.i 9 p e $.k.k.$.d p d t E.E.~.E.",
"E.E.E.#.O 0 z c L r.r.L c z 0 $ o.E.E.E.",
"T.T.T.@ 7 c N N C L W C N N x 7 + P.P.T.",
"P.P.c.  l B V V V V C V V V V l . f.P.P.",
"J.P.-.$ v D D D D D D D D D D v ; *.H.J.",
"F.F.s.4 N F F T ( _ _ ( T F F N 2 r.H.H.",
"Z.F.Z.s v I ^ ` } | | } ' / T M 9 S.F.F.",
"V.Z.M.J k I [ ..3.6.6.3.<.{ I k g M.V.V.",
"M.M.M.h.& S ,.9.0.e.e.0.9.<.S - s.m.N.N.",
"n.n.n.M.@.h W 4.y.i.u.t.4.E j O.V.n.n.n.",
"v.v.v.v.D.+.2 K ! >.>.! Z < X.F.c.v.v.v.",
"x.x.x.x.x.A.n.g , & : > f x.F.x.x.x.x.x.",
"l.l.l.l.l.l.l.D.~.~.E.~.J.l.l.l.l.x.l.x.",
"l.g.l.l.l.g.l.l.l.l.l.l.l.g.l.l.h.h.h.h.",
"f.f.g.g.g.h.f.f.g.g.g.h.f.f.g.g.g.g.g.g.",
"*.*.*.*.*.*.*.*.*.*.*.*.*.*.*.*.*.*.*.*."
};
