<?xml version="1.0" encoding="utf-8"?>
<!-- Generator: Adobe Illustrator 15.0.0, SVG Export Plug-In . SVG Version: 6.00 Build 0)  -->
<!DOCTYPE svg PUBLIC "-//W3C//DTD SVG 1.1//EN" "http://www.w3.org/Graphics/SVG/1.1/DTD/svg11.dtd">
<svg version="1.1" id="Layer_1" xmlns="http://www.w3.org/2000/svg" xmlns:xlink="http://www.w3.org/1999/xlink" x="0px" y="0px"
	 width="48px" height="48px" viewBox="0 0 48 48" enable-background="new 0 0 48 48" xml:space="preserve">
<path fill-rule="evenodd" clip-rule="evenodd" fill="#FFFFFF" d="M40.207,34.333c0,3.277-2.656,5.938-5.935,5.938H13.615
	c-3.279,0-5.934-2.66-5.934-5.938V13.667c0-3.28,2.655-5.937,5.934-5.937h20.658c3.278,0,5.935,2.657,5.935,5.937V34.333z"/>
<g>
	<linearGradient id="SVGID_1_" gradientUnits="userSpaceOnUse" x1="2.5127" y1="2.5688" x2="45.3741" y2="45.4303">
		<stop  offset="0.0364" style="stop-color:#B3D9FF"/>
		<stop  offset="0.2788" style="stop-color:#83B8F4"/>
		<stop  offset="0.6506" style="stop-color:#679CD2"/>
		<stop  offset="1" style="stop-color:#5186B6"/>
	</linearGradient>
	<path fill-rule="evenodd" clip-rule="evenodd" fill="url(#SVGID_1_)" d="M39.179,0H8.706C3.872,0-0.047,3.918-0.047,8.759v30.485
		c0,4.833,3.918,8.756,8.753,8.756h30.473c4.836,0,8.754-3.923,8.754-8.756V8.759C47.933,3.918,44.015,0,39.179,0z M40.207,34.333
		c0,3.277-2.656,5.938-5.935,5.938H13.615c-3.279,0-5.934-2.66-5.934-5.938V13.667c0-3.28,2.655-5.937,5.934-5.937h20.658
		c3.278,0,5.935,2.657,5.935,5.937V34.333z"/>
	<linearGradient id="SVGID_2_" gradientUnits="userSpaceOnUse" x1="14.0527" y1="14.1094" x2="33.8331" y2="33.8897">
		<stop  offset="0" style="stop-color:#F4AE00"/>
		<stop  offset="1" style="stop-color:#DD6D19"/>
	</linearGradient>
	<path fill-rule="evenodd" clip-rule="evenodd" fill="url(#SVGID_2_)" d="M30.975,12.924H16.912c-2.231,0-4.041,1.808-4.041,4.041
		v14.07c0,2.23,1.81,4.04,4.041,4.04h14.063c2.23,0,4.039-1.81,4.039-4.04v-14.07C35.014,14.732,33.205,12.924,30.975,12.924z
		 M29.344,27.432c0,1.09-0.882,1.972-1.971,1.972h-6.861c-1.088,0-1.97-0.882-1.97-1.972v-6.864c0-1.088,0.882-1.971,1.97-1.971
		h6.861c1.089,0,1.971,0.883,1.971,1.971V27.432z"/>
</g>
</svg>
