<?xml version="1.0" encoding="UTF-8" standalone="no"?>
<!-- Generator: Adobe Illustrator 15.0.0, SVG Export Plug-In . SVG Version: 6.00 Build 0)  -->

<svg
   xmlns:dc="http://purl.org/dc/elements/1.1/"
   xmlns:cc="http://creativecommons.org/ns#"
   xmlns:rdf="http://www.w3.org/1999/02/22-rdf-syntax-ns#"
   xmlns:svg="http://www.w3.org/2000/svg"
   xmlns="http://www.w3.org/2000/svg"
   xmlns:xlink="http://www.w3.org/1999/xlink"
   xmlns:sodipodi="http://sodipodi.sourceforge.net/DTD/sodipodi-0.dtd"
   xmlns:inkscape="http://www.inkscape.org/namespaces/inkscape"
   version="1.1"
   id="svg53383"
   inkscape:version="0.48.2 r9819"
   sodipodi:version="0.32"
   sodipodi:docname="preferences-system.svg"
   x="0px"
   y="0px"
   width="48px"
   height="48px"
   viewBox="0 0 48 48"
   enable-background="new 0 0 48 48"
   xml:space="preserve"><metadata
   id="metadata42"><rdf:RDF><cc:Work
       rdf:about=""><dc:format>image/svg+xml</dc:format><dc:type
         rdf:resource="http://purl.org/dc/dcmitype/StillImage" /></cc:Work></rdf:RDF></metadata><defs
   id="defs40"><linearGradient
     inkscape:collect="always"
     xlink:href="#aigrd1"
     id="linearGradient3773"
     gradientUnits="userSpaceOnUse"
     gradientTransform="matrix(0.200685,0,0,0.200685,-47.226649,32.25405)"
     x1="99.777298"
     y1="15.4238"
     x2="153.0005"
     y2="248.6311" /><linearGradient
     id="aigrd1"
     gradientUnits="userSpaceOnUse"
     x1="99.777298"
     y1="15.4238"
     x2="153.0005"
     y2="248.6311"><stop
       offset="0"
       style="stop-color:#184375"
       id="stop53300" /><stop
       offset="1"
       style="stop-color:#C8BDDC"
       id="stop53302" /></linearGradient><radialGradient
     gradientUnits="userSpaceOnUse"
     r="11.68987"
     fy="72.568001"
     fx="14.287618"
     cy="68.872971"
     cx="14.287618"
     gradientTransform="matrix(1.399258,-2.234445e-7,8.196178e-8,0.513264,4.365074,4.839285)"
     id="radialGradient2308"
     xlink:href="#linearGradient2300"
     inkscape:collect="always" /><linearGradient
     id="linearGradient2300"><stop
       id="stop2302"
       offset="0.0000000"
       style="stop-color:#000000;stop-opacity:0.32673267;" /><stop
       id="stop2304"
       offset="1"
       style="stop-color:#000000;stop-opacity:0;" /></linearGradient><radialGradient
     r="11.68987"
     fy="72.568001"
     fx="14.287618"
     cy="68.872971"
     cx="14.287618"
     gradientTransform="matrix(1.399258,-2.234445e-7,8.196178e-8,0.513264,4.365074,4.839285)"
     gradientUnits="userSpaceOnUse"
     id="radialGradient3030"
     xlink:href="#linearGradient2300"
     inkscape:collect="always" /><radialGradient
     inkscape:collect="always"
     xlink:href="#linearGradient2300"
     id="radialGradient3062"
     gradientUnits="userSpaceOnUse"
     gradientTransform="matrix(1.399258,-2.234445e-7,8.196178e-8,0.513264,4.365074,4.839285)"
     cx="14.287618"
     cy="68.872971"
     fx="14.287618"
     fy="72.568001"
     r="11.68987" /><linearGradient
     inkscape:collect="always"
     xlink:href="#aigrd1"
     id="linearGradient3064"
     gradientUnits="userSpaceOnUse"
     gradientTransform="matrix(0.200685,0,0,0.200685,-47.226649,32.25405)"
     x1="99.777298"
     y1="15.4238"
     x2="153.0005"
     y2="248.6311" /><linearGradient
     inkscape:collect="always"
     xlink:href="#aigrd1"
     id="linearGradient3071"
     gradientUnits="userSpaceOnUse"
     gradientTransform="matrix(0.200685,0,0,0.200685,5.525506,-0.979969)"
     x1="99.777298"
     y1="15.4238"
     x2="153.0005"
     y2="248.6311" /><linearGradient
     id="SVGID_2_-7"
     gradientUnits="userSpaceOnUse"
     x1="18.060499"
     y1="17.5371"
     x2="29.7451"
     y2="29.2216"><stop
       offset="0.0364"
       style="stop-color:#B3D9FF"
       id="stop30-7" /><stop
       offset="0.3576"
       style="stop-color:#86BAF5"
       id="stop32-1" /><stop
       offset="0.6788"
       style="stop-color:#5186BF"
       id="stop34-2" /><stop
       offset="0.9455"
       style="stop-color:#3B6090"
       id="stop36-6" /></linearGradient><linearGradient
     id="SVGID_1_-0"
     gradientUnits="userSpaceOnUse"
     x1="23.901899"
     y1="45.8125"
     x2="23.901899"
     y2="0.9443"><stop
       offset="0"
       style="stop-color:#DCDCDA"
       id="stop5-4" /><stop
       offset="1"
       style="stop-color:#BAB9B7"
       id="stop7-9" /></linearGradient><linearGradient
     id="SVGID_1_-1"
     gradientUnits="userSpaceOnUse"
     x1="21.039101"
     y1="20.5249"
     x2="26.764299"
     y2="26.250099"><stop
       offset="0"
       style="stop-color:#F4AE00"
       id="stop4" /><stop
       offset="1"
       style="stop-color:#DD6D19"
       id="stop6" /></linearGradient><linearGradient
     gradientTransform="translate(-0.03714611,-0.13523752)"
     y2="26.250099"
     x2="26.764299"
     y1="20.5249"
     x1="21.039101"
     gradientUnits="userSpaceOnUse"
     id="linearGradient3042"
     xlink:href="#SVGID_1_-1"
     inkscape:collect="always" /><radialGradient
     inkscape:collect="always"
     xlink:href="#linearGradient2300-4"
     id="radialGradient3074-7"
     gradientUnits="userSpaceOnUse"
     gradientTransform="matrix(1.399258,-2.234445e-7,8.196178e-8,0.513264,4.365074,4.839285)"
     cx="14.287618"
     cy="68.872971"
     fx="14.287618"
     fy="72.568001"
     r="11.68987" /><linearGradient
     id="linearGradient2300-4"><stop
       id="stop2302-0"
       offset="0.0000000"
       style="stop-color:#000000;stop-opacity:0.32673267;" /><stop
       id="stop2304-9"
       offset="1"
       style="stop-color:#000000;stop-opacity:0;" /></linearGradient><linearGradient
     y2="0.9443"
     x2="23.901899"
     y1="45.8125"
     x1="23.901899"
     gradientUnits="userSpaceOnUse"
     id="linearGradient3113-4"
     xlink:href="#SVGID_1_-0-8"
     inkscape:collect="always" /><linearGradient
     id="SVGID_1_-0-8"
     gradientUnits="userSpaceOnUse"
     x1="23.901899"
     y1="45.8125"
     x2="23.901899"
     y2="0.9443"><stop
       offset="0"
       style="stop-color:#DCDCDA"
       id="stop5-4-8" /><stop
       offset="1"
       style="stop-color:#BAB9B7"
       id="stop7-9-2" /></linearGradient><linearGradient
     id="SVGID_2_-7-4"
     gradientUnits="userSpaceOnUse"
     x1="18.060499"
     y1="17.5371"
     x2="29.7451"
     y2="29.2216"><stop
       offset="0.0364"
       style="stop-color:#B3D9FF"
       id="stop30-7-5" /><stop
       offset="0.3576"
       style="stop-color:#86BAF5"
       id="stop32-1-5" /><stop
       offset="0.6788"
       style="stop-color:#5186BF"
       id="stop34-2-1" /><stop
       offset="0.9455"
       style="stop-color:#3B6090"
       id="stop36-6-7" /></linearGradient><radialGradient
     r="11.68987"
     fy="72.568001"
     fx="14.287618"
     cy="68.872971"
     cx="14.287618"
     gradientTransform="matrix(1.399258,-2.234445e-7,8.196178e-8,0.513264,4.365074,4.839285)"
     gradientUnits="userSpaceOnUse"
     id="radialGradient3071"
     xlink:href="#linearGradient2300-4"
     inkscape:collect="always" /></defs>
<sodipodi:namedview
   id="base"
   inkscape:window-width="1920"
   inkscape:window-height="1018"
   inkscape:window-x="-8"
   inkscape:window-y="-8"
   inkscape:showpageshadow="false"
   inkscape:pageopacity="0.0"
   inkscape:cx="43.652227"
   inkscape:zoom="5.6568542"
   borderopacity="0.11764706"
   bordercolor="#666666"
   showgrid="false"
   pagecolor="#ffffff"
   inkscape:cy="21.164787"
   inkscape:grid-bbox="true"
   inkscape:document-units="px"
   inkscape:pageshadow="2"
   inkscape:current-layer="layer2_19_"
   inkscape:window-maximized="1">
	</sodipodi:namedview>
<linearGradient
   id="SVGID_1_"
   gradientUnits="userSpaceOnUse"
   x1="23.9019"
   y1="45.8125"
   x2="23.9019"
   y2="0.9443">
	<stop
   offset="0"
   style="stop-color:#DCDCDA"
   id="stop5" />
	<stop
   offset="1"
   style="stop-color:#BAB9B7"
   id="stop7" />
</linearGradient>

<g
   id="layer2_19_"
   inkscape:label="shadow"
   inkscape:groupmode="layer">
	
		<radialGradient
   id="path1538_1_"
   cx="184.0859"
   cy="-638.604"
   r="11.6916"
   fx="184.0859"
   fy="-634.9084"
   gradientTransform="matrix(1.6601 0 0 -0.6089 -281.6908 -344.0208)"
   gradientUnits="userSpaceOnUse">
		<stop
   offset="0"
   style="stop-color:#000000;stop-opacity:0.3267"
   id="stop13" />
		<stop
   offset="1"
   style="stop-color:#000000;stop-opacity:0"
   id="stop15" />
	</radialGradient>
	
		
<path
   style="fill:url(#linearGradient3042);fill-rule:evenodd"
   inkscape:connector-curvature="0"
   clip-rule="evenodd"
   d="m 25.900854,20.046762 h -4.072 c -0.646,0 -1.169,0.523 -1.169,1.169 v 4.071 c 0,0.646 0.523,1.169 1.169,1.169 h 4.072 c 0.646,0 1.169,-0.523 1.169,-1.169 v -4.071 c -10e-4,-0.645 -0.524,-1.169 -1.169,-1.169 z"
   id="path8" /><path
   transform="matrix(1.18638,0,0,1.18638,-4.678421,-7.72386)"
   d="m 44.285715,38.714287 a 19.928572,9.837245 0 1 1 -39.8571433,0 19.928572,9.837245 0 1 1 39.8571433,0 z"
   sodipodi:ry="9.837245"
   sodipodi:rx="19.928572"
   sodipodi:cy="38.714287"
   sodipodi:cx="24.357143"
   id="path1538"
   style="color:#000000;fill:url(#radialGradient3071);fill-opacity:1;fill-rule:evenodd;stroke:none;stroke-width:0.50000042;marker:none;visibility:visible;display:inline;overflow:visible"
   sodipodi:type="arc" /><path
   style="fill:url(#linearGradient3113-4);fill-rule:evenodd;stroke:#747672;stroke-width:1"
   inkscape:connector-curvature="0"
   clip-rule="evenodd"
   d="m 46.271,25.287 c 0.053,-0.628 0.063,-1.234 0.063,-1.875 0,-1.112 -0.131,-2.203 -0.287,-3.271 l -6.098,-1.115 c -0.482,-1.764 -1.264,-3.413 -2.258,-4.893 l 3.59,-4.9250004 c -1.111,-1.36 -2.383,-2.618 -3.781,-3.685 l -5.178,3.557 c -1.488,-0.879 -3.09,-1.553 -4.832,-1.936 l -0.953,-6.038 c -0.865,-0.103 -1.742,-0.15900004 -2.635,-0.15900004 -0.243,0 -0.49,-0.008 -0.731,0 -0.117,0.004 -0.232,-0.007 -0.348,0 -0.035,0.002 -0.066,-0.003 -0.095,0 -0.474,0.033 -0.933,0.10500004 -1.4,0.15900004 h -0.032 l -1.111,6.067 c -1.813,0.415 -3.518,1.114 -5.052,2.067 l -4.987,-3.59 c -1.352,1.049 -2.579,2.268 -3.656,3.591 L 9.951,14.294 c -1.05,1.605 -1.841,3.44 -2.288,5.368 0,0.012 0,0.03 0,0.033 l -6.036,0.953 c -0.111,0.9 -0.158,1.833 -0.158,2.763 0,0.763 0.021,1.516 0.095,2.256 l 6.037,1.08 c 0.429,2.096 1.246,4.053 2.384,5.782 l -3.591,4.928 c 1.028,1.275 2.216,2.438 3.494,3.462 l 5.084,-3.495 c 1.777,1.132 3.76,1.928 5.912,2.319 l 0.953,6.007 c 0.676,0.06 1.371,0.062 2.064,0.062 0.977,0 1.915,-0.035 2.86,-0.159 l 1.143,-6.132 c 2.041,-0.51 3.959,-1.389 5.625,-2.574 l 4.895,3.56 c 1.266,-1.079 2.426,-2.32 3.43,-3.653 l -3.559,-5.147 c 0.963,-1.665 1.633,-3.503 1.969,-5.465 l 6.007,-0.955 z m -13.16,3.941 c 0,1.856 -1.504,3.36 -3.359,3.36 h -11.7 c -1.856,0 -3.359,-1.504 -3.359,-3.36 V 17.53 c 0,-1.857 1.503,-3.359 3.359,-3.359 h 11.7 c 1.855,0 3.359,1.502 3.359,3.359 v 11.698 z"
   id="path9" /><path
   style="opacity:0.34659998;fill:none;stroke:#ffffff;stroke-width:1"
   inkscape:connector-curvature="0"
   id="path3285_23_"
   inkscape:r_cy="true"
   inkscape:r_cx="true"
   sodipodi:nodetypes="ccccccccccccccccccccccccccccccccc"
   enable-background="new    "
   d="m 22.157,2.1489996 -0.893,5.876 c -1.698,0.386 -4.825,1.571 -6.262,2.4610004 L 10.251,6.9409996 c -1.262,0.981 -1.349,1.049 -2.361,2.288 L 11.326,14.323 c -0.985,1.508 -2.17,4.191 -2.594,6.109 l -6.02,1.015 c -0.103,0.844 -0.054,2.654 0.017,3.352 l 5.749,1.034 c 0.402,1.964 1.907,5.129 2.976,6.747 l -3.637,4.805 c 0.966,1.195 1.158,1.305 2.357,2.264 l 4.861,-3.559 c 1.666,1.061 4.972,2.354 6.987,2.722 l 0.796,5.802 c 0.637,0.056 2.388,0.217 3.277,0.105 l 0.893,-6.043 c 1.914,-0.476 5.221,-1.83 6.781,-2.942 l 4.854,3.51 c 1.191,-1.013 1.201,-1.164 2.143,-2.418 l -3.602,-5.111 c 0.902,-1.56 2.072,-4.611 2.393,-6.452 l 5.889,-0.978 c 0.049,-0.588 0.055,-2.226 -0.096,-3.227 l -6.002,-1.036 c -0.447,-1.656 -1.984,-4.637 -2.914,-6.026 l 3.813,-4.8010004 c -1.043,-1.277 -1.43,-1.452 -2.744,-2.452 L 32.482,10.342 C 31.086,9.5149996 28.302,8.2589996 26.673,7.8989996 l -0.889,-5.749 c -0.817,-0.096 -3.16,-0.053 -3.627,-0.001 z" /><path
   style="opacity:0.64769999;fill:none;stroke:#ffffff;stroke-width:1.62179995"
   inkscape:connector-curvature="0"
   clip-rule="evenodd"
   enable-background="new    "
   d="M 30.949,12.47 H 17.066 c -2.206,0 -3.991,1.785 -3.991,3.989 v 13.887 c 0,2.202 1.785,3.987 3.991,3.987 h 13.883 c 2.205,0 3.992,-1.785 3.992,-3.987 V 16.459 c 0,-2.204 -1.787,-3.989 -3.992,-3.989 z"
   id="path19" /><g
   id="g21"><path
     style="opacity:0.5;fill:#ffffff"
     inkscape:connector-curvature="0"
     enable-background="new    "
     d="m 32.268,31.434 c -0.582,0.663 -1.41,1.091 -2.35,1.139 0.008,0.192 0.008,0.386 0.023,0.576 l -1.76,0.569 c 0.053,0.516 0.129,1.028 0.232,1.528 l 1.838,-0.028 c 0.131,0.55 0.303,1.108 0.492,1.634 0.744,-0.289 1.475,-0.631 2.15,-1.037 -0.412,-1.215 -0.648,-2.53 -0.648,-3.883 0.001,-0.168 0.017,-0.333 0.023,-0.498 z"
     id="path23" /><path
     style="opacity:0.5;fill:#ffffff"
     inkscape:connector-curvature="0"
     enable-background="new    "
     d="m 39.057,20.406 c -0.221,-0.821 -0.51,-1.63 -0.879,-2.381 -0.012,-0.024 -0.014,-0.056 -0.025,-0.078 L 38.1,17.894 37.399,17.222 c -0.383,0.18 -0.746,0.386 -1.111,0.596 l 0.568,1.735 c -0.695,0.423 -1.354,0.921 -1.969,1.451 l -1.473,-1.09 c -0.107,0.096 -0.201,0.204 -0.303,0.304 v 1.852 l 0.303,0.409 c -0.107,0.122 -0.203,0.25 -0.303,0.374 v 4.598 c 1.268,-3.166 3.83,-5.676 7.033,-6.863 l -1.087,-0.182 z"
     id="path25" /></g><path
   style="opacity:0.5;fill:#ffffff"
   inkscape:connector-curvature="0"
   enable-background="new    "
   d="m 14.693,19.269 -0.263,-0.35 c 0.093,-0.108 0.174,-0.222 0.263,-0.332 V 17.53 c 0,-1.454 0.928,-2.683 2.224,-3.149 0.071,-0.245 0.143,-0.489 0.202,-0.744 h 1.596 c 0.087,-0.426 0.138,-0.871 0.187,-1.313 l -1.5,-0.468 c 0.029,-0.344 0.062,-0.711 0.062,-1.063 0,-0.351 -0.033,-0.687 -0.062,-1.0310004 l 1.5,-0.47 c -0.047,-0.418 -0.106,-0.84 -0.187,-1.249 -1.15,0.399 -2.554,1.152 -3.571,1.782 l -4.881,-3.526 c -1.35,1.045 -1.937,1.674 -3.015,2.996 L 10.651,14.261 c -1.051,1.6 -2.159,4.167 -2.349,5.73 L 2.239,21.033 C 2.17,21.6 2.065,22.888 2.065,22.888 l 0.177,1.563 c 0.427,0.089 0.84,0.17 1.282,0.218 l 0.499,-1.53 c 0.345,0.028 0.681,0.062 1.031,0.062 0.352,0 0.718,-0.033 1.064,-0.062 l 0.468,1.53 C 7.027,24.621 7.472,24.54 7.899,24.451 v -1.563 c 0.686,-0.16 1.331,-0.387 1.969,-0.655 l 0.936,1.28 c 0.404,-0.18 0.776,-0.375 1.157,-0.592 l -0.499,-1.5 c 0.596,-0.363 1.161,-0.797 1.688,-1.25 l 1.28,0.938 c 0.092,-0.085 0.174,-0.177 0.263,-0.263 v -1.577 z"
   id="path27" /><path
   style="fill:url(#SVGID_2_-7-4);fill-rule:evenodd;stroke:#747672;stroke-width:1;stroke-linecap:round;stroke-linejoin:round"
   inkscape:connector-curvature="0"
   clip-rule="evenodd"
   d="m 28.057,16.838 h -8.309 c -1.32,0 -2.387,1.068 -2.387,2.386 v 8.308 c 0,1.317 1.067,2.39 2.387,2.39 h 8.309 c 1.318,0 2.387,-1.072 2.387,-2.39 v -8.308 c -10e-4,-1.318 -1.069,-2.386 -2.387,-2.386 z m -1.319,8.81 c 0,0.312 -0.256,0.566 -0.566,0.566 h -4.539 c -0.313,0 -0.566,-0.255 -0.566,-0.566 V 21.11 c 0,-0.314 0.253,-0.568 0.566,-0.568 h 4.539 c 0.311,0 0.566,0.254 0.566,0.568 v 4.538 z"
   id="path38" /></g>




<linearGradient
   id="SVGID_2_"
   gradientUnits="userSpaceOnUse"
   x1="18.0605"
   y1="17.5371"
   x2="29.7451"
   y2="29.2216">
	<stop
   offset="0.0364"
   style="stop-color:#B3D9FF"
   id="stop30" />
	<stop
   offset="0.3576"
   style="stop-color:#86BAF5"
   id="stop32" />
	<stop
   offset="0.6788"
   style="stop-color:#5186BF"
   id="stop34" />
	<stop
   offset="0.9455"
   style="stop-color:#3B6090"
   id="stop36" />
</linearGradient>

</svg>